<?xml version="1.0" encoding="UTF-8" standalone="no"?>
<!-- Created with Inkscape (http://www.inkscape.org/) -->

<svg
   width="362.89999mm"
   height="70.150002mm"
   viewBox="0 0 362.9 70.150001"
   version="1.1"
   id="svg1"
   inkscape:version="1.3.2 (091e20e, 2023-11-25, custom)"
   sodipodi:docname="bottom-text.svg"
   xmlns:inkscape="http://www.inkscape.org/namespaces/inkscape"
   xmlns:sodipodi="http://sodipodi.sourceforge.net/DTD/sodipodi-0.dtd"
   xmlns="http://www.w3.org/2000/svg"
   xmlns:svg="http://www.w3.org/2000/svg">
  <sodipodi:namedview
     id="namedview1"
     pagecolor="#ffffff"
     bordercolor="#666666"
     borderopacity="1.0"
     inkscape:showpageshadow="2"
     inkscape:pageopacity="0.0"
     inkscape:pagecheckerboard="0"
     inkscape:deskcolor="#d1d1d1"
     inkscape:document-units="mm"
     inkscape:zoom="1.0343421"
     inkscape:cx="519.17061"
     inkscape:cy="238.31574"
     inkscape:window-width="1920"
     inkscape:window-height="1017"
     inkscape:window-x="-8"
     inkscape:window-y="-8"
     inkscape:window-maximized="1"
     inkscape:current-layer="layer1" />
  <defs
     id="defs1" />
  <g
     inkscape:label="Ebene 1"
     inkscape:groupmode="layer"
     id="layer1"
     transform="translate(6.3273735,5.05)">
    <path
       style="font-size:2.82222px;line-height:1.25;-inkscape-font-specification:'sans-serif, Normal';letter-spacing:0px;word-spacing:0px;stroke-width:0.264583"
       d="m 49.075263,43.256938 h -0.304546 v 0.577397 h -0.264583 v -0.577397 h -0.982541 v -0.316949 l 0.993565,-1.157551 h 0.253559 v 1.254014 h 0.304546 z m -0.569129,-0.220486 v -0.926041 l -0.795128,0.926041 z m 2.866317,0.797883 h -0.79375 v -0.5333 q 0.08268,-0.05237 0.163987,-0.112999 0.08268,-0.06063 0.143316,-0.139182 0.06201,-0.0813 0.09784,-0.190169 0.03583,-0.110243 0.03583,-0.256315 0,-0.283876 -0.17501,-0.454752 -0.175011,-0.172255 -0.478179,-0.172255 -0.303168,0 -0.478179,0.172255 -0.175011,0.170876 -0.175011,0.454752 0,0.146072 0.03583,0.256315 0.03583,0.108865 0.09784,0.190169 0.06201,0.07855 0.143316,0.139182 0.0813,0.06063 0.163986,0.112999 v 0.5333 h -0.793749 v -0.239778 h 0.564995 V 43.42368 Q 49.70916,43.299657 49.5686,43.084683 49.429419,42.869709 49.429419,42.60237 q 0,-0.380338 0.257692,-0.621495 0.259071,-0.241156 0.679373,-0.241156 0.420301,0 0.677994,0.241156 0.259071,0.241157 0.259071,0.621495 0,0.267339 -0.14056,0.482313 -0.139182,0.214974 -0.355533,0.338997 v 0.170877 h 0.564995 z"
       id="text2"
       aria-label="4Ω" />
    <path
       style="font-size:2.82222px;line-height:1.25;font-family:Sans;-inkscape-font-specification:'Sans, Normal';letter-spacing:0px;word-spacing:0px;stroke-width:0.264583"
       d="m 48.116575,62.199469 q 0,0.143316 -0.05236,0.274229 -0.05237,0.130914 -0.143316,0.220486 -0.09922,0.09646 -0.237022,0.148828 -0.136426,0.05099 -0.316949,0.05099 -0.16812,0 -0.323839,-0.03583 -0.155718,-0.03445 -0.263205,-0.08406 v -0.290766 h 0.01929 q 0.112999,0.07166 0.264583,0.122646 0.151584,0.04961 0.297656,0.04961 0.09784,0 0.188791,-0.02756 0.09233,-0.02756 0.163986,-0.09646 0.06063,-0.05926 0.09095,-0.141938 0.0317,-0.08268 0.0317,-0.191547 0,-0.106109 -0.03721,-0.179145 -0.03583,-0.07304 -0.100597,-0.117133 -0.07166,-0.05237 -0.175011,-0.07304 -0.101974,-0.02205 -0.228754,-0.02205 -0.121267,0 -0.234266,0.01654 -0.111621,0.01654 -0.192925,0.03307 v -1.056954 h 1.234721 v 0.241156 h -0.96876 v 0.545703 q 0.05926,-0.0055 0.121267,-0.0083 0.06201,-0.0028 0.107487,-0.0028 0.166742,0 0.292144,0.02894 0.125401,0.02756 0.230132,0.09922 0.110243,0.07579 0.170877,0.195682 0.06063,0.119889 0.06063,0.300412 z m 1.807985,-0.374826 q 0,0.552592 -0.173633,0.811663 -0.172254,0.257693 -0.536056,0.257693 -0.369314,0 -0.540191,-0.261827 -0.169498,-0.261827 -0.169498,-0.804773 0,-0.547081 0.172254,-0.80753 0.172255,-0.261827 0.537435,-0.261827 0.369314,0 0.538812,0.265961 0.170877,0.264583 0.170877,0.80064 z m -0.362424,0.625628 q 0.04823,-0.111621 0.06477,-0.261827 0.01791,-0.151584 0.01791,-0.363801 0,-0.209462 -0.01791,-0.363802 -0.01654,-0.15434 -0.06615,-0.261827 -0.04823,-0.106109 -0.132291,-0.159853 -0.08268,-0.05374 -0.213596,-0.05374 -0.129536,0 -0.214974,0.05374 -0.08406,0.05374 -0.13367,0.162609 -0.04685,0.101974 -0.06477,0.265961 -0.01654,0.163986 -0.01654,0.359668 0,0.214973 0.01516,0.359667 0.01516,0.144694 0.06477,0.259071 0.04548,0.107487 0.128158,0.163987 0.08406,0.0565 0.221864,0.0565 0.129535,0 0.214974,-0.05374 0.08544,-0.05374 0.132291,-0.162609 z m 3.212205,-1.650888 -0.533301,2.051897 h -0.307302 l -0.431325,-1.703254 -0.42168,1.703254 h -0.300412 l -0.542947,-2.051897 h 0.279742 l 0.431326,1.70601 0.424435,-1.70601 h 0.276985 l 0.42857,1.722546 0.42857,-1.722546 z"
       id="text3"
       aria-label="50W" />
  </g>
</svg>
