<?xml version="1.0" encoding="UTF-8" standalone="no"?>
<!-- Created with Inkscape (http://www.inkscape.org/) -->

<svg
   width="362.89999mm"
   height="39.251186mm"
   viewBox="0 0 362.9 39.251186"
   version="1.1"
   id="svg1"
   inkscape:version="1.3.2 (091e20e, 2023-11-25, custom)"
   sodipodi:docname="top.svg"
   xmlns:inkscape="http://www.inkscape.org/namespaces/inkscape"
   xmlns:sodipodi="http://sodipodi.sourceforge.net/DTD/sodipodi-0.dtd"
   xmlns="http://www.w3.org/2000/svg"
   xmlns:svg="http://www.w3.org/2000/svg"
   xmlns:rdf="http://www.w3.org/1999/02/22-rdf-syntax-ns#"
   xmlns:cc="http://creativecommons.org/ns#"
   xmlns:dc="http://purl.org/dc/elements/1.1/">
  <title
     id="title3">fan-blades</title>
  <sodipodi:namedview
     id="namedview1"
     pagecolor="#ffffff"
     bordercolor="#666666"
     borderopacity="1.0"
     inkscape:showpageshadow="2"
     inkscape:pageopacity="0.0"
     inkscape:pagecheckerboard="0"
     inkscape:deskcolor="#d1d1d1"
     inkscape:document-units="mm"
     inkscape:zoom="0.68119919"
     inkscape:cx="883.73564"
     inkscape:cy="37.433985"
     inkscape:window-width="1920"
     inkscape:window-height="1017"
     inkscape:window-x="-8"
     inkscape:window-y="-8"
     inkscape:window-maximized="1"
     inkscape:current-layer="layer1"
     showgrid="false"
     showguides="false" />
  <defs
     id="defs1" />
  <g
     inkscape:label="Ebene 1"
     inkscape:groupmode="layer"
     id="layer1"
     transform="translate(6.3273735,-40.136313)">
    <path
       id="rect1"
       style="fill:none;stroke:#000000;stroke-width:0.1;stroke-dasharray:none"
       d="M -6.2773735,40.186313 H 356.52263 V 65.05 h -30.85 c -8.77565,0 -9.28231,14.2875 -20,14.2875 h -22 c -8.44349,0 -9.14099,-6.879167 -17,-6.879167 h -38 c -7.91471,0 -8.03557,-7.408333 -20,-7.408333 0,0 -130.664252,0 -131.000003,0 -10.805302,0 -11.000681,10.054167 -20.000001,10.054167 H 29.672627 C 20.479103,75.104167 20.419784,65.05 9.6726265,65.05 h -15.95 z"
       sodipodi:nodetypes="cccsssssssssscc" />
    <circle
       style="fill:none;stroke:#000000;stroke-width:0.100549;stroke-dasharray:none"
       id="path1"
       cx="295.08533"
       cy="60.574654"
       r="11.449726" />
    <ellipse
       style="fill:none;stroke:#000000;stroke-width:0.058805;stroke-dasharray:none"
       id="path1-9"
       cx="266.73016"
       cy="56.591911"
       rx="2.9705977"
       ry="2.9705975" />
    <circle
       style="fill:none;stroke:#000000;stroke-width:0.0784067;stroke-dasharray:none"
       id="path1-9-1"
       cx="238.03629"
       cy="55.623543"
       r="3.9607966" />
    <path
       id="path1-9-1-3"
       style="fill:none;stroke:#000000;stroke-width:0.138466"
       d="m 236.18307,62.4107 c -2.92776,-0.825642 -5.07721,-3.559195 -5.07721,-6.804094 0,-3.898779 3.10301,-7.059368 6.93076,-7.059373 3.82774,-2e-6 6.93077,3.160589 6.93077,7.059373 0,3.242908 -2.14683,5.975096 -5.07184,6.802572"
       sodipodi:nodetypes="csssc" />
    <path
       d="m 288.13555,42.812778 h -1.16737 v 0.651123 h 1.00304 v 0.272851 h -1.00304 v 1.11156 h -0.30696 v -2.308386 h 1.47433 z m 1.72548,1.170471 q 0,0.42323 -0.21704,0.668176 -0.21704,0.244946 -0.58136,0.244946 -0.36742,0 -0.58446,-0.244946 -0.21549,-0.244946 -0.21549,-0.668176 0,-0.42323 0.21549,-0.668176 0.21704,-0.246497 0.58446,-0.246497 0.36432,0 0.58136,0.246497 0.21704,0.244946 0.21704,0.668176 z m -0.30076,0 q 0,-0.336414 -0.13177,-0.499194 -0.13178,-0.164331 -0.36587,-0.164331 -0.2372,0 -0.36897,0.164331 -0.13023,0.16278 -0.13023,0.499194 0,0.325561 0.13178,0.494543 0.13177,0.167432 0.36742,0.167432 0.23254,0 0.36432,-0.165881 0.13332,-0.167432 0.13332,-0.496094 z m 2.22777,0 q 0,0.42323 -0.21704,0.668176 -0.21704,0.244946 -0.58136,0.244946 -0.36742,0 -0.58446,-0.244946 -0.21549,-0.244946 -0.21549,-0.668176 0,-0.42323 0.21549,-0.668176 0.21704,-0.246497 0.58446,-0.246497 0.36432,0 0.58136,0.246497 0.21704,0.244946 0.21704,0.668176 z m -0.30075,0 q 0,-0.336414 -0.13178,-0.499194 -0.13177,-0.164331 -0.36587,-0.164331 -0.23719,0 -0.36897,0.164331 -0.13022,0.16278 -0.13022,0.499194 0,0.325561 0.13177,0.494543 0.13178,0.167432 0.36742,0.167432 0.23255,0 0.36432,-0.165881 0.13333,-0.167432 0.13333,-0.496094 z m 1.65106,0.84956 q -0.0822,0.02171 -0.17984,0.03566 -0.0961,0.01395 -0.17208,0.01395 -0.2651,0 -0.40307,-0.142627 -0.13798,-0.142627 -0.13798,-0.457337 v -0.920874 h -0.19689 v -0.244946 h 0.19689 v -0.497644 h 0.29145 v 0.497644 h 0.60152 v 0.244946 h -0.60152 v 0.7891 q 0,0.136425 0.006,0.21394 0.006,0.07596 0.0434,0.142627 0.0341,0.06201 0.093,0.09147 0.0605,0.02791 0.18294,0.02791 0.0713,0 0.14882,-0.02015 0.0775,-0.0217 0.11163,-0.03566 h 0.0155 z m 1.58905,-0.483691 q 0,0.237195 -0.19689,0.389124 -0.19534,0.151928 -0.53485,0.151928 -0.19224,0 -0.35347,-0.04496 -0.15968,-0.04651 -0.2682,-0.100769 v -0.327112 h 0.0155 q 0.13797,0.10387 0.30695,0.165881 0.16899,0.06046 0.32402,0.06046 0.19223,0 0.30075,-0.06201 0.10852,-0.06201 0.10852,-0.195337 0,-0.102319 -0.0589,-0.155029 -0.0589,-0.05271 -0.22634,-0.08992 -0.062,-0.01395 -0.16278,-0.03256 -0.0992,-0.0186 -0.18139,-0.04031 -0.22789,-0.06046 -0.32401,-0.176733 -0.0946,-0.117823 -0.0946,-0.288355 0,-0.10697 0.0434,-0.201538 0.045,-0.09457 0.13488,-0.168982 0.0868,-0.07286 0.22014,-0.114722 0.13488,-0.04341 0.30076,-0.04341 0.15503,0 0.31316,0.03876 0.15968,0.03721 0.2651,0.09147 v 0.311609 h -0.0155 q -0.11162,-0.08217 -0.2713,-0.137976 -0.15968,-0.05736 -0.31316,-0.05736 -0.15968,0 -0.26975,0.06201 -0.11007,0.06046 -0.11007,0.181384 0,0.10697 0.0667,0.16123 0.0651,0.05426 0.21084,0.08837 0.0806,0.0186 0.17984,0.03721 0.10077,0.0186 0.16743,0.03411 0.20309,0.04651 0.31316,0.159681 0.11007,0.114721 0.11007,0.303857 z m 2.59519,-1.232483 -0.45114,1.731677 h -0.26975 l -0.44493,-1.334802 -0.44183,1.334802 h -0.26821 l -0.45578,-1.731677 h 0.30386 l 0.31781,1.341004 0.43253,-1.341004 h 0.24029 l 0.44339,1.341004 0.30075,-1.341004 z m 0.73329,-0.289905 h -0.32867 v -0.302307 h 0.32867 z m -0.0186,2.021582 h -0.29145 v -1.731677 h 0.29145 z m 1.47588,-0.0155 q -0.0822,0.02171 -0.17983,0.03566 -0.0961,0.01395 -0.17208,0.01395 -0.2651,0 -0.40308,-0.142627 -0.13798,-0.142627 -0.13798,-0.457337 v -0.920874 h -0.19688 v -0.244946 h 0.19688 v -0.497644 h 0.29146 v 0.497644 h 0.60151 v 0.244946 h -0.60151 v 0.7891 q 0,0.136425 0.006,0.21394 0.006,0.07596 0.0434,0.142627 0.0341,0.06201 0.093,0.09147 0.0605,0.02791 0.18293,0.02791 0.0713,0 0.14883,-0.02015 0.0775,-0.0217 0.11162,-0.03566 h 0.0155 z m 1.63246,-0.09302 q -0.14573,0.06976 -0.2775,0.10852 -0.13023,0.03876 -0.2775,0.03876 -0.18759,0 -0.34417,-0.05426 -0.15658,-0.05581 -0.2682,-0.167431 -0.11317,-0.111621 -0.17518,-0.282154 -0.062,-0.170532 -0.062,-0.398425 0,-0.42478 0.23254,-0.666626 0.23409,-0.241845 0.61702,-0.241845 0.14882,0 0.29145,0.04186 0.14418,0.04186 0.26355,0.10232 v 0.324011 h -0.0155 q -0.13333,-0.10387 -0.27595,-0.15968 -0.14108,-0.05581 -0.27596,-0.05581 -0.24804,0 -0.39222,0.167432 -0.14263,0.165881 -0.14263,0.488342 0,0.313159 0.13953,0.482141 0.14108,0.167432 0.39532,0.167432 0.0884,0 0.17984,-0.02325 0.0915,-0.02325 0.16433,-0.06046 0.0636,-0.03256 0.11937,-0.06821 0.0558,-0.03721 0.0884,-0.06356 h 0.0155 z m 1.8216,0.10852 h -0.29146 v -0.985986 q 0,-0.119372 -0.0139,-0.223242 -0.014,-0.10542 -0.0512,-0.164331 -0.0388,-0.06511 -0.11162,-0.09612 -0.0729,-0.03256 -0.18914,-0.03256 -0.11937,0 -0.2496,0.05891 -0.13022,0.05891 -0.24959,0.150378 v 1.292944 h -0.29146 v -2.412255 h 0.29146 v 0.872814 q 0.13642,-0.113171 0.28215,-0.176733 0.14573,-0.06356 0.29921,-0.06356 0.2806,0 0.42788,0.168982 0.14728,0.168982 0.14728,0.486792 z"
       id="text1"
       style="font-size:3.175px;line-height:1.25;-inkscape-font-specification:'sans-serif, Normal';letter-spacing:0px;word-spacing:0px;stroke-width:0.264583"
       aria-label="Footswitch" />
    <path
       d="m 262.9818,49.691376 h -1.46038 V 47.38299 h 0.30696 v 2.035534 h 1.15342 z m 0.59686,-2.021582 H 263.25 v -0.302307 h 0.32866 z m -0.0186,2.021582 h -0.29146 v -1.731677 h 0.29146 z m 2.02468,0 h -0.29145 v -0.985987 q 0,-0.119372 -0.014,-0.223242 -0.014,-0.10542 -0.0512,-0.164331 -0.0387,-0.06511 -0.11162,-0.09612 -0.0729,-0.03256 -0.18913,-0.03256 -0.11938,0 -0.2496,0.05891 -0.13022,0.05891 -0.2496,0.150378 v 1.292945 h -0.29145 v -1.731677 h 0.29145 v 0.192236 q 0.13643,-0.113172 0.28216,-0.176734 0.14572,-0.06356 0.2992,-0.06356 0.28061,0 0.42788,0.168982 0.14728,0.168982 0.14728,0.486792 z m 2.01073,-0.835608 h -1.27589 q 0,0.15968 0.0481,0.279053 0.0481,0.117822 0.13177,0.193786 0.0806,0.07441 0.19069,0.111621 0.11162,0.03721 0.24495,0.03721 0.17673,0 0.35501,-0.06976 0.17984,-0.07131 0.2558,-0.139526 h 0.0155 v 0.31781 q -0.14727,0.06201 -0.30075,0.103869 -0.15348,0.04186 -0.32246,0.04186 -0.43098,0 -0.67283,-0.232544 -0.24185,-0.234094 -0.24185,-0.663525 0,-0.42478 0.231,-0.674377 0.23254,-0.249598 0.61081,-0.249598 0.35037,0 0.5395,0.204639 0.19069,0.204639 0.19069,0.58136 z m -0.2837,-0.223242 q -0.002,-0.229444 -0.11627,-0.355017 -0.11318,-0.125574 -0.34572,-0.125574 -0.23409,0 -0.37362,0.137976 -0.13798,0.137976 -0.15658,0.342615 z m 1.64331,0.189135 h -0.96738 v -0.280603 h 0.96738 z m 1.31465,0.869715 h -0.91158 v -0.235645 h 0.30231 v -1.837097 h -0.30231 V 47.38299 h 0.91158 v 0.235644 h -0.30231 v 1.837097 h 0.30231 z m 1.94716,0 h -0.29145 v -0.985987 q 0,-0.119372 -0.0139,-0.223242 -0.014,-0.10542 -0.0512,-0.164331 -0.0388,-0.06511 -0.11162,-0.09612 -0.0729,-0.03256 -0.18914,-0.03256 -0.11937,0 -0.2496,0.05891 -0.13022,0.05891 -0.24959,0.150378 v 1.292945 h -0.29146 v -1.731677 h 0.29146 v 0.192236 q 0.13642,-0.113172 0.28215,-0.176734 0.14573,-0.06356 0.29921,-0.06356 0.2806,0 0.42788,0.168982 0.14727,0.168982 0.14727,0.486792 z"
       id="text1-4"
       style="font-size:3.175px;line-height:1.25;-inkscape-font-specification:'sans-serif, Normal';letter-spacing:0px;word-spacing:0px;stroke-width:0.264583"
       aria-label="Line-In" />
    <path
       style="fill:none;stroke:#000000;stroke-width:0.264583px;stroke-linecap:butt;stroke-linejoin:miter;stroke-opacity:1"
       d="m 236.96411,59.423499 -0.77144,2.926006"
       id="path2"
       sodipodi:nodetypes="cc" />
    <path
       style="fill:none;stroke:#000000;stroke-width:0.264583px;stroke-linecap:butt;stroke-linejoin:miter;stroke-opacity:1"
       d="m 235.17556,58.392319 -2.07701,2.094175"
       id="path2-2"
       sodipodi:nodetypes="cc" />
    <path
       style="fill:none;stroke:#000000;stroke-width:0.264583px;stroke-linecap:butt;stroke-linejoin:miter;stroke-opacity:1"
       d="m 234.16346,56.585813 -2.76808,0.769986"
       id="path2-5"
       sodipodi:nodetypes="cc" />
    <path
       style="fill:none;stroke:#000000;stroke-width:0.264583px;stroke-linecap:butt;stroke-linejoin:miter;stroke-opacity:1"
       d="m 234.18938,54.546042 -2.80313,-0.743964"
       id="path2-4"
       sodipodi:nodetypes="cc" />
    <path
       style="fill:none;stroke:#000000;stroke-width:0.264583px;stroke-linecap:butt;stroke-linejoin:miter;stroke-opacity:1"
       d="m 233.1319,50.721537 2.1067,2.054153"
       id="path2-1"
       sodipodi:nodetypes="cc" />
    <path
       style="fill:none;stroke:#000000;stroke-width:0.264583px;stroke-linecap:butt;stroke-linejoin:miter;stroke-opacity:1"
       d="m 236.25314,48.847167 0.80195,2.906332"
       id="path2-6"
       sodipodi:nodetypes="cc" />
    <path
       style="fill:none;stroke:#000000;stroke-width:0.264583px;stroke-linecap:butt;stroke-linejoin:miter;stroke-opacity:1"
       d="m 239.95794,48.89129 -0.783,2.909152"
       id="path2-0"
       sodipodi:nodetypes="cc" />
    <path
       style="fill:none;stroke:#000000;stroke-width:0.264583px;stroke-linecap:butt;stroke-linejoin:miter;stroke-opacity:1"
       d="m 242.96698,50.741476 -2.10111,2.068248"
       id="path2-14"
       sodipodi:nodetypes="cc" />
    <path
       style="fill:none;stroke:#000000;stroke-width:0.264583px;stroke-linecap:butt;stroke-linejoin:miter;stroke-opacity:1"
       d="m 244.70983,53.899617 -2.81586,0.748022"
       id="path2-8"
       sodipodi:nodetypes="cc" />
    <path
       style="fill:none;stroke:#000000;stroke-width:0.264583px;stroke-linecap:butt;stroke-linejoin:miter;stroke-opacity:1"
       d="m 241.88917,56.678217 2.77325,0.748955"
       id="path2-88"
       sodipodi:nodetypes="cc" />
    <path
       style="fill:none;stroke:#000000;stroke-width:0.264583px;stroke-linecap:butt;stroke-linejoin:miter;stroke-opacity:1"
       d="m 240.86705,58.4521 2.07757,2.063955"
       id="path2-68"
       sodipodi:nodetypes="cc" />
    <path
       style="fill:none;stroke:#000000;stroke-width:0.264583px;stroke-linecap:butt;stroke-linejoin:miter;stroke-opacity:1"
       d="m 239.0911,59.458628 0.78814,2.88249"
       id="path2-688"
       sodipodi:nodetypes="cc" />
    <path
       d="m 236.22357,64.752995 q 0,0.552593 -0.17363,0.811664 -0.17226,0.257693 -0.53606,0.257693 -0.36931,0 -0.54019,-0.261827 -0.1695,-0.261827 -0.1695,-0.804774 0,-0.547081 0.17226,-0.80753 0.17225,-0.261827 0.53743,-0.261827 0.36932,0 0.53881,0.265961 0.17088,0.264583 0.17088,0.80064 z m -0.36242,0.625629 q 0.0482,-0.111621 0.0648,-0.261827 0.0179,-0.151584 0.0179,-0.363802 0,-0.209462 -0.0179,-0.363802 -0.0165,-0.15434 -0.0661,-0.261827 -0.0482,-0.106109 -0.13229,-0.159852 -0.0827,-0.05374 -0.2136,-0.05374 -0.12953,0 -0.21497,0.05374 -0.0841,0.05374 -0.13367,0.162608 -0.0469,0.101975 -0.0648,0.265961 -0.0165,0.163987 -0.0165,0.359668 0,0.214974 0.0152,0.359668 0.0152,0.144694 0.0648,0.259071 0.0455,0.107487 0.12816,0.163986 0.0841,0.0565 0.22186,0.0565 0.12954,0 0.21498,-0.05374 0.0854,-0.05374 0.13229,-0.162608 z"
       id="text2"
       style="font-size:2.82222px;line-height:1.25;-inkscape-font-specification:'sans-serif, Normal';letter-spacing:0px;word-spacing:0px;stroke-width:0.264583"
       aria-label="0" />
    <path
       d="m 231.96723,63.198841 h -1.1107 v -0.209462 h 0.42719 v -1.375281 h -0.42719 v -0.187413 q 0.0868,0 0.18603,-0.01378 0.0992,-0.01516 0.15021,-0.04272 0.0634,-0.03445 0.0992,-0.08682 0.0372,-0.05374 0.0427,-0.143315 h 0.21359 v 1.849325 h 0.41893 z"
       id="text2-0"
       style="font-size:2.82222px;line-height:1.25;-inkscape-font-specification:'sans-serif, Normal';letter-spacing:0px;word-spacing:0px;stroke-width:0.264583"
       aria-label="1" />
    <path
       d="m 229.81649,58.888531 h -1.38906 v -0.28801 q 0.14469,-0.124023 0.28939,-0.248047 0.14607,-0.124023 0.27147,-0.246668 0.26458,-0.256315 0.36243,-0.406521 0.0978,-0.151584 0.0978,-0.326595 0,-0.159852 -0.10611,-0.249425 -0.10473,-0.09095 -0.29352,-0.09095 -0.12541,0 -0.27148,0.0441 -0.14607,0.0441 -0.28525,0.135048 h -0.0138 v -0.289388 q 0.0978,-0.04823 0.26045,-0.08819 0.16398,-0.03996 0.31695,-0.03996 0.31557,0 0.49471,0.152962 0.17915,0.151584 0.17915,0.412033 0,0.117134 -0.0303,0.219108 -0.0289,0.100597 -0.0868,0.191548 -0.0537,0.08544 -0.12678,0.16812 -0.0717,0.08268 -0.17501,0.183279 -0.14745,0.144694 -0.30454,0.28112 -0.1571,0.135047 -0.29353,0.250802 h 1.10381 z"
       id="text2-0-4"
       style="font-size:2.82222px;line-height:1.25;-inkscape-font-specification:'sans-serif, Normal';letter-spacing:0px;word-spacing:0px;stroke-width:0.264583"
       aria-label="2" />
    <path
       d="m 229.71319,53.25589 q 0.0661,0.05926 0.10887,0.148828 0.0427,0.08957 0.0427,0.23151 0,0.14056 -0.051,0.257693 -0.051,0.117133 -0.14332,0.203949 -0.10335,0.09646 -0.24391,0.143316 -0.13918,0.04548 -0.30592,0.04548 -0.17088,0 -0.33624,-0.04134 -0.16537,-0.03996 -0.27148,-0.08819 v -0.28801 h 0.0207 q 0.11714,0.07717 0.27561,0.128158 0.15848,0.05099 0.30593,0.05099 0.0868,0 0.18465,-0.02894 0.0978,-0.02894 0.15848,-0.08544 0.0634,-0.06063 0.0937,-0.13367 0.0317,-0.07304 0.0317,-0.184657 0,-0.110243 -0.0358,-0.181901 -0.0344,-0.07304 -0.0965,-0.114377 -0.062,-0.04272 -0.15021,-0.05788 -0.0882,-0.01654 -0.19017,-0.01654 h -0.12402 v -0.228754 h 0.0965 q 0.20946,0 0.33349,-0.08682 0.1254,-0.0882 0.1254,-0.256315 0,-0.07441 -0.0317,-0.129536 -0.0317,-0.0565 -0.0882,-0.09233 -0.0593,-0.03583 -0.12678,-0.04961 -0.0675,-0.01378 -0.15296,-0.01378 -0.13092,0 -0.27837,0.04685 -0.14745,0.04685 -0.27836,0.132292 h -0.0138 v -0.28801 q 0.0978,-0.04823 0.26045,-0.08819 0.16398,-0.04134 0.31695,-0.04134 0.1502,0 0.26458,0.02756 0.11438,0.02756 0.20671,0.08819 0.0992,0.06615 0.1502,0.159852 0.051,0.09371 0.051,0.219108 0,0.170877 -0.12127,0.299034 -0.11989,0.12678 -0.28387,0.159852 v 0.01929 q 0.0661,0.01102 0.15158,0.04685 0.0854,0.03445 0.14469,0.08682 z"
       id="text2-0-6"
       style="font-size:2.82222px;line-height:1.25;-inkscape-font-specification:'sans-serif, Normal';letter-spacing:0px;word-spacing:0px;stroke-width:0.264583"
       aria-label="3" />
    <path
       d="m 231.98632,49.656569 h -0.30455 v 0.577398 h -0.26458 v -0.577398 h -0.98254 v -0.316948 l 0.99356,-1.157551 h 0.25356 v 1.254013 h 0.30455 z m -0.56913,-0.220486 v -0.926041 l -0.79513,0.926041 z"
       id="text2-0-0"
       style="font-size:2.82222px;line-height:1.25;-inkscape-font-specification:'sans-serif, Normal';letter-spacing:0px;word-spacing:0px;stroke-width:0.264583"
       aria-label="4" />
    <path
       d="m 236.21687,46.722723 q 0,0.143316 -0.0524,0.274229 -0.0524,0.130914 -0.14332,0.220486 -0.0992,0.09646 -0.23702,0.148828 -0.13643,0.05099 -0.31695,0.05099 -0.16812,0 -0.32384,-0.03583 -0.15572,-0.03445 -0.2632,-0.08406 v -0.290766 h 0.0193 q 0.113,0.07166 0.26458,0.122645 0.15158,0.04961 0.29766,0.04961 0.0978,0 0.18879,-0.02756 0.0923,-0.02756 0.16398,-0.09646 0.0606,-0.05926 0.0909,-0.141938 0.0317,-0.08268 0.0317,-0.191547 0,-0.106109 -0.0372,-0.179145 -0.0358,-0.07304 -0.10059,-0.117133 -0.0717,-0.05237 -0.17501,-0.07304 -0.10198,-0.02205 -0.22876,-0.02205 -0.12127,0 -0.23427,0.01654 -0.11162,0.01654 -0.19292,0.03307 v -1.056955 h 1.23472 v 0.241157 h -0.96876 v 0.545703 q 0.0593,-0.0055 0.12127,-0.0083 0.062,-0.0028 0.10748,-0.0028 0.16675,0 0.29215,0.02894 0.1254,0.02756 0.23013,0.09922 0.11024,0.07579 0.17088,0.195681 0.0606,0.119889 0.0606,0.300412 z"
       id="text2-0-9"
       style="font-size:2.82222px;line-height:1.25;-inkscape-font-specification:'sans-serif, Normal';letter-spacing:0px;word-spacing:0px;stroke-width:0.264583"
       aria-label="5" />
    <path
       d="m 241.49975,46.819996 q 0,0.312815 -0.20671,0.511252 -0.20533,0.197059 -0.50436,0.197059 -0.15158,0 -0.27561,-0.04685 -0.12402,-0.04685 -0.21911,-0.139182 -0.11851,-0.114377 -0.18327,-0.303168 -0.0634,-0.188791 -0.0634,-0.454752 0,-0.272852 0.0579,-0.483691 0.0593,-0.21084 0.18742,-0.374826 0.12126,-0.155719 0.31281,-0.242535 0.19155,-0.08819 0.44649,-0.08819 0.0813,0 0.13642,0.0069 0.0551,0.0069 0.11162,0.02481 v 0.263205 h -0.0138 q -0.0386,-0.02067 -0.11713,-0.03858 -0.0772,-0.01929 -0.15848,-0.01929 -0.29627,0 -0.47266,0.186035 -0.17639,0.184657 -0.20533,0.500228 0.11576,-0.07028 0.22738,-0.106109 0.113,-0.03721 0.26045,-0.03721 0.13091,0 0.23013,0.0248 0.10059,0.02343 0.20532,0.09646 0.12127,0.08406 0.18191,0.212218 0.062,0.128157 0.062,0.311436 z m -0.27974,0.01102 q 0,-0.128157 -0.0386,-0.212217 -0.0372,-0.08406 -0.12402,-0.146072 -0.0634,-0.0441 -0.14056,-0.05788 -0.0772,-0.01378 -0.16123,-0.01378 -0.11714,0 -0.21773,0.02756 -0.1006,0.02756 -0.20671,0.08544 -0.003,0.03032 -0.004,0.05926 -0.001,0.02756 -0.001,0.07028 0,0.21773 0.0441,0.34451 0.0455,0.125401 0.12402,0.198437 0.0634,0.06063 0.13643,0.08957 0.0744,0.02756 0.16123,0.02756 0.19981,0 0.31419,-0.121267 0.11438,-0.122645 0.11438,-0.3514 z"
       id="text2-0-65"
       style="font-size:2.82222px;line-height:1.25;-inkscape-font-specification:'sans-serif, Normal';letter-spacing:0px;word-spacing:0px;stroke-width:0.264583"
       aria-label="6" />
    <path
       d="m 245.98683,47.870174 -0.9288,1.744595 h -0.2949 l 0.98806,-1.810741 h -1.16858 v -0.241156 h 1.40422 z"
       id="text2-0-7"
       style="font-size:2.82222px;line-height:1.25;-inkscape-font-specification:'sans-serif, Normal';letter-spacing:0px;word-spacing:0px;stroke-width:0.264583"
       aria-label="7" />
    <path
       d="m 247.97649,53.937628 q 0,0.265962 -0.20809,0.44235 -0.2067,0.176389 -0.52089,0.176389 -0.33349,0 -0.53193,-0.172255 -0.19706,-0.172254 -0.19706,-0.440971 0,-0.170877 0.0992,-0.308681 0.0992,-0.139181 0.27974,-0.220486 v -0.0083 q -0.16536,-0.08819 -0.24529,-0.192925 -0.0785,-0.104731 -0.0785,-0.261827 0,-0.23151 0.19017,-0.385851 0.19017,-0.15434 0.4837,-0.15434 0.3073,0 0.49058,0.14745 0.18328,0.14745 0.18328,0.374826 0,0.139182 -0.0868,0.27423 -0.0868,0.133669 -0.25494,0.209461 v 0.0083 q 0.19293,0.08268 0.2949,0.203949 0.10198,0.121267 0.10198,0.30868 z m -0.3266,-1.001833 q 0,-0.14745 -0.11438,-0.234266 -0.11299,-0.08819 -0.28938,-0.08819 -0.17364,0 -0.28526,0.08268 -0.11024,0.08268 -0.11024,0.223242 0,0.09922 0.0551,0.172255 0.0565,0.07166 0.1695,0.128157 0.051,0.02481 0.14607,0.06477 0.0965,0.03996 0.18742,0.06615 0.13642,-0.09095 0.18879,-0.188791 0.0524,-0.09784 0.0524,-0.225999 z m 0.0427,1.028016 q 0,-0.126779 -0.0565,-0.202571 -0.0551,-0.07717 -0.21773,-0.15434 -0.0648,-0.03032 -0.14194,-0.0565 -0.0772,-0.02618 -0.20532,-0.07304 -0.12403,0.06752 -0.19982,0.183279 -0.0744,0.115755 -0.0744,0.261827 0,0.186035 0.12815,0.307302 0.12816,0.121268 0.32522,0.121268 0.20119,0 0.32108,-0.103353 0.12127,-0.103353 0.12127,-0.283876 z"
       id="text2-0-7-3"
       style="font-size:2.82222px;line-height:1.25;-inkscape-font-specification:'sans-serif, Normal';letter-spacing:0px;word-spacing:0px;stroke-width:0.264583"
       aria-label="8" />
    <path
       d="m 247.86328,57.890111 q 0,0.268718 -0.062,0.487826 -0.0606,0.219107 -0.18466,0.373448 -0.1254,0.157096 -0.31419,0.242534 -0.18879,0.08544 -0.44373,0.08544 -0.0717,0 -0.13505,-0.0083 -0.0634,-0.0069 -0.11299,-0.02343 v -0.263205 h 0.0138 q 0.04,0.02067 0.11299,0.03996 0.073,0.01791 0.16261,0.01791 0.30455,0 0.4768,-0.181901 0.17364,-0.183279 0.2012,-0.504361 -0.12816,0.07717 -0.24116,0.110243 -0.113,0.03307 -0.24667,0.03307 -0.12678,0 -0.23013,-0.0248 -0.10197,-0.02481 -0.20533,-0.09646 -0.12126,-0.08406 -0.18328,-0.213596 -0.0606,-0.129535 -0.0606,-0.310058 0,-0.314192 0.20671,-0.511252 0.2067,-0.197059 0.50436,-0.197059 0.14883,0 0.2756,0.04685 0.12678,0.04547 0.22187,0.137804 0.11713,0.114377 0.18052,0.2949 0.0634,0.179145 0.0634,0.464398 z m -0.27836,-0.05926 q 0,-0.213596 -0.0441,-0.343131 -0.0441,-0.129536 -0.12127,-0.201194 -0.0648,-0.06201 -0.13918,-0.08819 -0.0744,-0.02756 -0.16123,-0.02756 -0.19844,0 -0.31419,0.124023 -0.11438,0.124024 -0.11438,0.348644 0,0.130913 0.0372,0.213596 0.0372,0.08268 0.1254,0.144693 0.062,0.04272 0.13643,0.05788 0.0744,0.01378 0.16536,0.01378 0.10749,0 0.21773,-0.02894 0.11024,-0.02894 0.20671,-0.08406 0.001,-0.02894 0.003,-0.0565 0.003,-0.02894 0.003,-0.07304 z"
       id="text2-0-7-9"
       style="font-size:2.82222px;line-height:1.25;-inkscape-font-specification:'sans-serif, Normal';letter-spacing:0px;word-spacing:0px;stroke-width:0.264583"
       aria-label="9" />
    <path
       d="m 245.91516,63.163818 h -1.11069 v -0.209461 h 0.42719 v -1.375281 h -0.42719 v -0.187413 q 0.0868,0 0.18603,-0.01378 0.0992,-0.01516 0.15021,-0.04272 0.0634,-0.03445 0.0992,-0.08682 0.0372,-0.05374 0.0427,-0.143316 h 0.2136 v 1.849326 h 0.41892 z m 1.90859,-1.026637 q 0,0.552593 -0.17364,0.811664 -0.17225,0.257693 -0.53605,0.257693 -0.36932,0 -0.54019,-0.261828 -0.1695,-0.261827 -0.1695,-0.804773 0,-0.547081 0.17225,-0.80753 0.17226,-0.261827 0.53744,-0.261827 0.36931,0 0.53881,0.265961 0.17088,0.264583 0.17088,0.80064 z m -0.36243,0.625629 q 0.0482,-0.111621 0.0648,-0.261828 0.0179,-0.151584 0.0179,-0.363801 0,-0.209462 -0.0179,-0.363802 -0.0165,-0.15434 -0.0662,-0.261827 -0.0482,-0.106109 -0.13229,-0.159852 -0.0827,-0.05374 -0.21359,-0.05374 -0.12954,0 -0.21498,0.05374 -0.0841,0.05374 -0.13367,0.162608 -0.0469,0.101975 -0.0648,0.265961 -0.0165,0.163986 -0.0165,0.359668 0,0.214974 0.0152,0.359667 0.0152,0.144694 0.0648,0.259071 0.0455,0.107487 0.12816,0.163987 0.0841,0.0565 0.22187,0.0565 0.12953,0 0.21497,-0.05374 0.0854,-0.05374 0.13229,-0.162608 z"
       id="text2-0-7-4"
       style="font-size:2.82222px;line-height:1.25;-inkscape-font-specification:'sans-serif, Normal';letter-spacing:0px;word-spacing:0px;stroke-width:0.264583"
       aria-label="10" />
    <path
       d="m 241.43381,65.682388 h -1.1107 v -0.209461 h 0.42719 v -1.375281 h -0.42719 v -0.187413 q 0.0868,0 0.18604,-0.01378 0.0992,-0.01516 0.1502,-0.04272 0.0634,-0.03445 0.0992,-0.08682 0.0372,-0.05374 0.0427,-0.143316 h 0.2136 v 1.849326 h 0.41892 z m 1.7942,0 h -1.11069 v -0.209461 h 0.42719 v -1.375281 h -0.42719 v -0.187413 q 0.0868,0 0.18603,-0.01378 0.0992,-0.01516 0.15021,-0.04272 0.0634,-0.03445 0.0992,-0.08682 0.0372,-0.05374 0.0427,-0.143316 h 0.21359 v 1.849326 h 0.41892 z"
       id="text2-0-7-2"
       style="font-size:2.82222px;line-height:1.25;-inkscape-font-specification:'sans-serif, Normal';letter-spacing:0px;word-spacing:0px;stroke-width:0.264583"
       aria-label="11" />
    <rect
       style="fill:none;stroke:#000000;stroke-width:0.106258;stroke-dasharray:none"
       id="rect2"
       width="9.8937416"
       height="4.8937421"
       x="38.725754"
       y="54.944824"
       ry="0" />
    <circle
       style="fill:none;stroke:#000000;stroke-width:0.101415;stroke-dasharray:none"
       id="path3"
       cx="43.672626"
       cy="51.041691"
       r="1.4492924" />
    <circle
       style="fill:none;stroke:#000000;stroke-width:0.101415;stroke-dasharray:none"
       id="path3-0"
       cx="43.672626"
       cy="63.741703"
       r="1.4492924" />
    <circle
       style="fill:none;stroke:#000000;stroke-width:0.101415;stroke-dasharray:none"
       id="path3-0-2"
       cx="236.56767"
       cy="-165.76207"
       r="1.4492924"
       transform="rotate(45)" />
    <circle
       style="fill:none;stroke:#000000;stroke-width:0.101415;stroke-dasharray:none"
       id="path3-0-2-3"
       cx="266.56769"
       cy="-165.76207"
       r="1.4492924"
       transform="rotate(45)" />
    <path
       class="cls-1"
       d="m 45.052667,62.854772 c -0.02505,0.296923 -0.05938,0.593856 -0.10736,0.890782 -0.326611,2.055662 -1.322476,3.275354 -1.845525,5.063776 -0.625835,2.165292 1.502912,3.097193 3.318747,2.976138 0.9242,-0.08229 1.828978,-0.313695 2.679206,-0.685219 0.755959,-0.321549 1.470643,-0.732568 2.128752,-1.224259 4.593253,-3.380418 3.654504,-7.971389 -1.395566,-10.588929 -0.2979,-0.152187 -0.616482,-0.259925 -0.945605,-0.319784 -0.200716,0.958338 -0.677041,1.837159 -1.370438,2.528462 v 0 c -0.675346,0.677215 -1.529263,1.148533 -2.46222,1.359019 z m 3.830375,-5.95456 c 0.287794,0.01141 0.577871,0.03191 0.865659,0.06624 2.069364,0.228415 3.33017,1.178579 5.139151,1.621689 2.192702,0.536755 3.030952,-1.637677 2.834525,-3.446656 -0.1249,-0.919095 -0.398773,-1.811687 -0.810847,-2.642669 -0.35474,-0.741039 -0.796383,-1.437242 -1.315618,-2.073931 -3.581416,-4.449361 -8.124423,-3.307328 -10.518123,1.861513 -0.100561,0.214773 -0.177161,0.439969 -0.228414,0.671514 1.00448,0.185101 1.928701,0.671911 2.649513,1.395563 v 0 c 0.694973,0.695594 1.17134,1.579254 1.37044,2.542165 z M 42.738906,53.0173 c 0,-0.365451 0.02985,-0.733184 0.07081,-1.098635 0.228414,-2.071646 1.169441,-3.334734 1.598847,-5.143714 0.54589,-2.194986 -1.633109,-3.026388 -3.439803,-2.825389 -0.91933,0.126459 -1.811913,0.401871 -2.642663,0.815411 -0.740501,0.355007 -1.435337,0.798291 -2.069365,1.320191 -4.433369,3.590548 -3.28677,8.131272 1.877501,10.513553 0.273261,0.125011 0.562135,0.21259 0.85881,0.260371 0.409258,-1.892609 1.864211,-3.384824 3.745868,-3.841801 z M 38.9702,58.862224 c -0.436171,0.0057 -0.872324,-0.01261 -1.306486,-0.05481 -2.073931,-0.200993 -3.350724,-1.12376 -5.166559,-1.537177 -2.201837,-0.502494 -3.003543,1.687925 -2.77742,3.492335 0.14033,0.916838 0.428843,1.804749 0.854239,2.628959 0.366184,0.736709 0.819379,1.426854 1.349883,2.055659 3.654503,4.378553 8.176954,3.167999 10.486146,-2.035103 0.08471,-0.196224 0.151968,-0.399531 0.20099,-0.607561 -1.867967,-0.509189 -3.281519,-2.039799 -3.640796,-3.942296 z"
       id="path1-3"
       style="fill-rule:evenodd;stroke-width:0.228406"
       sodipodi:nodetypes="scccccccsscsccccccccssccccccccccccscccccccss" />
  </g>
  <metadata
     id="metadata3">
    <rdf:RDF>
      <cc:Work
         rdf:about="">
        <dc:title>fan-blades</dc:title>
      </cc:Work>
    </rdf:RDF>
  </metadata>
</svg>
