<?xml version="1.0" encoding="UTF-8" standalone="no"?>
<!-- Created with Inkscape (http://www.inkscape.org/) -->

<svg
   version="1.1"
   id="svg1"
   width="335.69559"
   height="314.63199"
   viewBox="0 0 335.69558 314.63198"
   sodipodi:docname="Front-plate-top-cutouts-89x83.svg"
   inkscape:version="1.3.2 (091e20e, 2023-11-25, custom)"
   xmlns:inkscape="http://www.inkscape.org/namespaces/inkscape"
   xmlns:sodipodi="http://sodipodi.sourceforge.net/DTD/sodipodi-0.dtd"
   xmlns="http://www.w3.org/2000/svg"
   xmlns:svg="http://www.w3.org/2000/svg">
  <defs
     id="defs1" />
  <sodipodi:namedview
     id="namedview1"
     pagecolor="#ffffff"
     bordercolor="#666666"
     borderopacity="1.0"
     inkscape:showpageshadow="2"
     inkscape:pageopacity="0.0"
     inkscape:pagecheckerboard="0"
     inkscape:deskcolor="#d1d1d1"
     showgrid="false"
     inkscape:zoom="1.0824912"
     inkscape:cx="290.07164"
     inkscape:cy="244.34379"
     inkscape:window-width="1920"
     inkscape:window-height="1017"
     inkscape:window-x="-8"
     inkscape:window-y="-8"
     inkscape:window-maximized="1"
     inkscape:current-layer="g1" />
  <g
     inkscape:groupmode="layer"
     inkscape:label="Image"
     id="g1"
     transform="translate(-395.45924,-9.4846848)">
    <path
       style="fill:#000000;stroke-width:0.430361"
       d="m 451.01843,284.80485 v -39.31183 l -27.68655,0.14897 -27.68657,0.14896 -0.1486,38.4456 c -0.0817,21.14507 -0.0253,38.76836 0.12544,39.16286 0.21399,0.56005 6.31498,0.71727 27.83518,0.71727 h 27.5611 z M 671.22091,166.75104 671.36542,9.6723107 567.16915,9.5257767 c -57.30796,-0.08059 -104.30387,-0.03894 -104.43534,0.09256 -0.40721,0.4072493 -0.26257,313.7097633 0.14503,314.1173433 0.21122,0.21125 47.14214,0.31884 104.29082,0.23909 l 103.90677,-0.145 z m 51.49886,132.46936 c 5.47686,-2.59359 8.43507,-7.16165 8.43507,-13.02539 0,-8.10982 -6.11857,-14.27028 -14.17321,-14.27028 -7.79354,0 -13.67795,5.2392 -14.46659,12.88038 -1.13559,11.00274 10.25293,19.128 20.20473,14.41529 z M 437.52949,232.94763 c 9.9824,-4.72561 15.54869,-16.69287 12.70895,-27.32372 -2.26787,-8.48999 -7.93753,-14.32726 -16.50611,-16.9941 -12.66337,-3.94128 -26.18836,3.71626 -29.74821,16.84278 -1.24148,4.57779 -0.565,11.55164 1.56129,16.09542 5.5833,11.93122 19.99065,17.05722 31.98408,11.37962 z m 1.56493,-65.8345 c 4.52873,-2.3419 6.15683,-9.37105 3.20408,-13.83301 -5.22222,-7.89129 -17.67554,-4.19344 -17.67554,5.24851 0,7.66687 7.56636,12.15525 14.47146,8.5845 z"
       id="path1"
       sodipodi:nodetypes="ccccsssccccssssccsssssssssssssss" />
  </g>
</svg>
