<?xml version="1.0" encoding="UTF-8" standalone="no"?>
<!-- Created with Inkscape (http://www.inkscape.org/) -->

<svg
   version="1.1"
   id="svg1"
   width="1133.8585"
   height="503.14688"
   viewBox="0 0 1133.8585 503.14686"
   sodipodi:docname="Front-plate-no-knobs-300x133.svg"
   inkscape:version="1.3.2 (091e20e, 2023-11-25, custom)"
   xmlns:inkscape="http://www.inkscape.org/namespaces/inkscape"
   xmlns:sodipodi="http://sodipodi.sourceforge.net/DTD/sodipodi-0.dtd"
   xmlns="http://www.w3.org/2000/svg"
   xmlns:svg="http://www.w3.org/2000/svg">
  <defs
     id="defs1" />
  <sodipodi:namedview
     id="namedview1"
     pagecolor="#ffffff"
     bordercolor="#666666"
     borderopacity="1.0"
     inkscape:showpageshadow="2"
     inkscape:pageopacity="0.0"
     inkscape:pagecheckerboard="0"
     inkscape:deskcolor="#d1d1d1"
     showgrid="false"
     inkscape:zoom="0.66374998"
     inkscape:cx="1333.3334"
     inkscape:cy="615.44258"
     inkscape:window-width="1920"
     inkscape:window-height="1017"
     inkscape:window-x="-8"
     inkscape:window-y="-8"
     inkscape:window-maximized="1"
     inkscape:current-layer="g1" />
  <g
     inkscape:groupmode="layer"
     inkscape:label="Image"
     id="g1">
    <path
       style="fill:#000000;stroke-width:0.430361"
       d="m 0.013893,484.64136 c 0.01861,-24.78179 0.964116,-71.89385 1.703886,-84.89975 2.15382,-37.86632 5.780008,-55.42686 13.154947,-63.70545 2.950971,-3.31256 8.951912,-6.3934 14.801466,-7.59897 8.829716,-1.81977 21.373653,-2.00754 135.297568,-2.02525 109.45491,-0.017 123.51572,-0.19764 136.56793,-1.75427 47.28019,-5.63873 70.3693,-27.74577 86.26699,-82.59769 6.84002,-23.60014 10.94282,-44.134 21.03844,-105.29384 10.81807,-65.536478 15.62713,-85.887666 24.67827,-104.434306 9.09422,-18.634878 19.79588,-27.5921423 37.11757,-31.0673053 4.28085,-0.85884297 13.2234,-0.97958697 88.07787,-1.18923497 84.74478,-0.23735 99.2281,0.01132 107.48015,1.84538497 5.75561,1.279212 13.78197,5.230722 18.39101,9.0541893 11.17308,9.268764 19.74221,26.123809 26.40248,51.932474 3.60987,13.98838 6.91573,31.50275 14.01411,74.246638 7.60581,45.79966 9.99376,58.86099 14.35404,78.51169 9.75431,43.96018 20.30887,68.32489 36.67968,84.67316 16.38906,16.36647 35.28182,23.23997 70.03985,25.48163 5.78018,0.37277 51.29013,0.59476 123.08327,0.60035 70.28008,0.005 117.16188,0.22996 122.39658,0.58607 13.1803,0.89664 19.1216,2.50438 24.8373,6.72103 9.1185,6.72699 13.4752,25.3349 15.7526,67.27996 0.5892,10.85196 1.6488,67.83489 1.6886,90.80619 l 0.02,11.33283 H 566.92905 0 Z m 78.897668,-58.59087 c 8.510968,-3.96328 11.904048,-13.64823 7.717098,-22.02705 -1.8675,-3.73721 -4.14484,-5.82589 -8.408464,-7.71189 -3.235433,-1.43119 -9.615515,-1.25054 -12.805304,0.36258 -9.943261,5.02841 -12.20832,18.38081 -4.415471,26.02893 4.726463,4.63864 12.157215,6.02733 17.912141,3.34743 z M 451.01843,284.80485 v -39.31183 l -27.68655,0.14897 -27.68657,0.14896 -0.1486,38.4456 c -0.0817,21.14507 -0.0253,38.76836 0.12544,39.16286 0.21399,0.56005 6.31498,0.71727 27.83518,0.71727 h 27.5611 z M 671.22091,166.75104 671.36542,9.6723107 567.16915,9.5257767 c -57.30796,-0.08059 -104.30387,-0.03894 -104.43534,0.09256 -0.40721,0.4072493 -0.26257,313.7097633 0.14503,314.1173433 0.21122,0.21125 47.14214,0.31884 104.29082,0.23909 l 103.90677,-0.145 z m 51.49886,132.46936 c 5.47686,-2.59359 8.43507,-7.16165 8.43507,-13.02539 0,-8.10982 -6.11857,-14.27028 -14.17321,-14.27028 -7.79354,0 -13.67795,5.2392 -14.46659,12.88038 -1.13559,11.00274 10.25293,19.128 20.20473,14.41529 z M 437.52949,232.94763 c 9.9824,-4.72561 15.54869,-16.69287 12.70895,-27.32372 -2.26787,-8.48999 -7.93753,-14.32726 -16.50611,-16.9941 -12.66337,-3.94128 -26.18836,3.71626 -29.74821,16.84278 -1.24148,4.57779 -0.565,11.55164 1.56129,16.09542 5.5833,11.93122 19.99065,17.05722 31.98408,11.37962 z m 1.56493,-65.8345 c 4.52873,-2.3419 6.15683,-9.37105 3.20408,-13.83301 -5.22222,-7.89129 -17.67554,-4.19344 -17.67554,5.24851 0,7.66687 7.56636,12.15525 14.47146,8.5845 z"
       id="path1" />
  </g>
</svg>
