<?xml version="1.0" encoding="UTF-8" standalone="no"?>
<!-- Created with Inkscape (http://www.inkscape.org/) -->

<svg
   version="1.1"
   id="svg1"
   width="339.40179"
   height="415.86285"
   viewBox="0 0 339.40179 415.86285"
   sodipodi:docname="Footswitch-2.0-3mm-8.98x11.svg"
   inkscape:version="1.3.1 (91b66b0783, 2023-11-16)"
   xmlns:inkscape="http://www.inkscape.org/namespaces/inkscape"
   xmlns:sodipodi="http://sodipodi.sourceforge.net/DTD/sodipodi-0.dtd"
   xmlns="http://www.w3.org/2000/svg"
   xmlns:svg="http://www.w3.org/2000/svg">
  <defs
     id="defs1" />
  <sodipodi:namedview
     id="namedview1"
     pagecolor="#ffffff"
     bordercolor="#666666"
     borderopacity="1.0"
     inkscape:showpageshadow="2"
     inkscape:pageopacity="0.0"
     inkscape:pagecheckerboard="0"
     inkscape:deskcolor="#d1d1d1"
     inkscape:zoom="3.584"
     inkscape:cx="92.633929"
     inkscape:cy="220.14509"
     inkscape:window-width="3840"
     inkscape:window-height="2050"
     inkscape:window-x="-12"
     inkscape:window-y="-12"
     inkscape:window-maximized="1"
     inkscape:current-layer="g1" />
  <g
     inkscape:groupmode="layer"
     inkscape:label="Image"
     id="g1">
    <path
       style="fill:#000000;stroke-width:0.214805"
       d="m 298.44377,363.00985 c -1.99348,-0.63198 -3.26801,-1.42652 -4.85329,-3.02551 -1.53148,-1.54471 -2.25127,-2.74356 -2.88986,-4.81312 -0.37501,-1.2153 -0.39486,-2.73782 -0.39486,-30.27836 0,-31.32375 -0.0532,-29.81561 1.13611,-32.22078 1.9244,-3.89182 5.85423,-6.35259 10.14117,-6.35011 3.40466,0.002 6.09101,1.15969 8.39982,3.62004 1.3809,1.47157 2.08727,2.69514 2.6974,4.67249 0.37501,1.2153 0.39485,2.73782 0.39485,30.27836 0,32.60635 0.12674,30.03907 -1.62772,32.9726 -0.99384,1.66175 -1.29163,2.01491 -2.56098,3.03723 -2.88545,2.3239 -7.08567,3.17145 -10.44264,2.10716 z m -0.003,-236.91147 c -1.85188,-0.54714 -3.18608,-1.37779 -4.82871,-3.0063 -1.50343,-1.49051 -2.26656,-2.76217 -2.91109,-4.85099 -0.37494,-1.21541 -0.39477,-2.74097 -0.39477,-30.385765 V 58.749221 l 0.49657,-1.437141 c 1.66257,-4.811725 5.94495,-7.906885 10.93977,-7.906885 3.19564,0 5.64592,1.048511 8.00753,3.42654 1.50462,1.515088 2.27958,2.800111 2.92094,4.84346 0.38783,1.235562 0.40454,2.487416 0.40454,30.287533 v 28.998702 l -0.48178,1.52167 c -1.54913,4.89277 -5.89243,8.06572 -10.97921,8.02074 -1.1178,-0.01 -2.38105,-0.17127 -3.17371,-0.40546 z"
       id="path1" />
  </g>
</svg>
