<?xml version="1.0" encoding="UTF-8" standalone="no"?>
<!-- Created with Inkscape (http://www.inkscape.org/) -->

<svg
   version="1.1"
   id="svg1"
   width="236.97316"
   height="415.74802"
   viewBox="0 0 236.97316 415.74802"
   sodipodi:docname="Footswitch-1.0-6.27x11.svg"
   inkscape:version="1.3.1 (91b66b0783, 2023-11-16)"
   xmlns:inkscape="http://www.inkscape.org/namespaces/inkscape"
   xmlns:sodipodi="http://sodipodi.sourceforge.net/DTD/sodipodi-0.dtd"
   xmlns="http://www.w3.org/2000/svg"
   xmlns:svg="http://www.w3.org/2000/svg">
  <defs
     id="defs1" />
  <sodipodi:namedview
     id="namedview1"
     pagecolor="#ffffff"
     bordercolor="#666666"
     borderopacity="1.0"
     inkscape:showpageshadow="2"
     inkscape:pageopacity="0.0"
     inkscape:pagecheckerboard="0"
     inkscape:deskcolor="#d1d1d1"
     inkscape:zoom="0.896"
     inkscape:cx="747.76786"
     inkscape:cy="989.95536"
     inkscape:window-width="3840"
     inkscape:window-height="2050"
     inkscape:window-x="-12"
     inkscape:window-y="-12"
     inkscape:window-maximized="1"
     inkscape:current-layer="g1" />
  <g
     inkscape:groupmode="layer"
     inkscape:label="Image"
     id="g1">
    <path
       style="fill:#000000;stroke-width:0.214635"
       d="m 42.06852,401.36749 v -14.38055 h -8.47808 -8.47808 v 3.00489 3.00489 h -1.28781 -1.28781 v -3.86343 -3.86343 h 3.00489 3.00489 V 377.543 369.81614 H 14.27329 6e-5 v -23.07327 -23.07326 h 14.27323 14.27323 v -7.72686 -7.72686 h -3.00489 -3.00489 v -7.72686 -7.72686 h 3.00489 3.00489 v -7.72686 -7.72687 H 14.27329 6e-5 L 3e-5,254.18152 0,231.0546 l 14.27326,0.0567 14.27326,0.0567 v -7.83721 -7.83718 h -3.00489 -3.00489 v -7.61954 -7.61955 h 3.00489 3.00489 v -7.72686 -7.72686 H 14.27329 6e-5 v -23.18058 -23.18058 h 14.27323 14.27323 v -7.72686 -7.72686 h -3.00489 -3.00489 v -7.72686 -7.72687 h 3.00489 3.00489 V 99.80533 92.07847 H 14.27329 6e-5 V 69.005159 45.931894 h 14.27323 14.27323 v -7.726861 -7.72686 h -3.00489 -3.00489 v -3.863431 -3.86343 h 1.28781 1.28781 v 3.00489 3.004891 h 8.47808 8.47808 V 14.380546 0 h 25.21962 25.21961 v 14.380546 14.380547 h 8.47809 8.47808 v -3.004891 -3.00489 h 8.37077 8.37076 v 3.00489 3.004891 h 8.47808 8.47809 V 14.380546 0 h 25.21961 25.21962 v 14.380546 14.380547 h 8.47808 8.47808 v -3.004891 -3.00489 h 8.37077 8.37077 v 3.00489 3.004891 h 4.83703 4.83704 l -0.0755,63.692937 c -0.0569,48.05508 -0.13943,64.27262 -0.33594,66.05393 -0.51755,4.69144 -1.08969,6.59034 -2.46193,8.17119 -1.69307,1.95042 -5.1174,3.00711 -8.09196,2.49703 -3.36058,-0.57627 -5.07916,-1.93513 -6.73761,-5.32731 -0.57041,-1.16676 -1.38778,-2.83819 -1.81637,-3.71429 -1.17145,-2.39469 -3.39743,-4.66569 -5.66411,-5.77866 -7.01028,-3.44219 -20.49861,-3.10909 -26.40178,0.65199 -1.87035,1.19165 -3.42291,3.14624 -4.87601,6.13859 -0.72841,1.50003 -1.53423,3.15057 -1.7907,3.66786 -0.73571,1.48389 -2.20458,2.82597 -4.80587,4.39103 -3.69216,2.22136 -5.67875,4.27432 -7.3026,7.54655 -2.83858,5.72011 -4.36155,16.58729 -4.36155,31.12208 0,17.53053 2.00963,28.66036 6.14622,34.03937 1.3909,1.80864 2.99255,3.15767 5.58275,4.70225 3.39655,2.02542 3.85658,2.5584 5.97327,6.92065 1.98172,4.08407 3.20302,5.69737 5.46604,7.22053 2.85755,1.9233 7.9143,3.02962 13.84785,3.02962 7.25636,0 13.14004,-1.72734 15.82459,-4.64578 1.01938,-1.1082 2.28043,-3.1552 3.22036,-5.22743 1.91278,-4.21717 2.86666,-5.44057 5.0504,-6.47754 3.52208,-1.67248 7.98606,-1.07435 10.46224,1.40183 1.47525,1.47525 2.04158,3.11746 2.63863,7.65133 0.3196,2.42698 0.36078,8.77966 0.43172,66.59051 l 0.0784,63.90758 h -4.83732 -4.83733 v 3.00489 3.00489 h -8.37077 -8.37077 v -3.00489 -3.00489 h -8.47808 -8.47808 v 14.38055 14.38054 h -25.21962 -25.21961 v -14.38054 -14.38055 h -8.47809 -8.47808 v 3.00489 3.00489 h -8.37076 -8.37077 v -3.00489 -3.00489 h -8.47808 -8.47809 v 14.38055 14.38054 H 67.2881 42.06848 Z"
       id="path2" />
  </g>
</svg>
