<?xml version="1.0" encoding="UTF-8" standalone="no"?>
<!-- Created with Inkscape (http://www.inkscape.org/) -->

<svg
   version="1.1"
   id="svg1"
   width="339.40179"
   height="415.86285"
   viewBox="0 0 339.40179 415.86285"
   sodipodi:docname="Footswitch-2.0-8.98x11.svg"
   inkscape:version="1.3.1 (91b66b0783, 2023-11-16)"
   xmlns:inkscape="http://www.inkscape.org/namespaces/inkscape"
   xmlns:sodipodi="http://sodipodi.sourceforge.net/DTD/sodipodi-0.dtd"
   xmlns="http://www.w3.org/2000/svg"
   xmlns:svg="http://www.w3.org/2000/svg">
  <defs
     id="defs1" />
  <sodipodi:namedview
     id="namedview1"
     pagecolor="#ffffff"
     bordercolor="#666666"
     borderopacity="1.0"
     inkscape:showpageshadow="2"
     inkscape:pageopacity="0.0"
     inkscape:pagecheckerboard="0"
     inkscape:deskcolor="#d1d1d1"
     inkscape:zoom="3.584"
     inkscape:cx="92.633929"
     inkscape:cy="220.14509"
     inkscape:window-width="3840"
     inkscape:window-height="2050"
     inkscape:window-x="-12"
     inkscape:window-y="-12"
     inkscape:window-maximized="1"
     inkscape:current-layer="g1" />
  <g
     inkscape:groupmode="layer"
     inkscape:label="Image"
     id="g1">
    <path
       style="fill:#000000;stroke-width:0.214805"
       d="m 74.68422,337.51266 c -0.0577,-58.87535 -0.140304,-78.85741 -0.332336,-80.39084 -0.610083,-4.87168 -1.204799,-6.6934 -2.671558,-8.18348 -1.480255,-1.50378 -2.495091,-1.94961 -5.561334,-2.44313 -2.119066,-0.34109 -5.678199,0.86333 -7.184905,2.43136 -0.827595,0.86128 -1.068222,1.28477 -3.268607,5.75248 -1.633897,3.3175 -2.615202,4.51609 -5.148756,6.28888 -2.431911,1.70164 -7.794155,2.81285 -13.573693,2.81285 -8.53034,0 -14.121397,-1.97896 -16.938837,-5.99549 -0.470535,-0.6708 -1.580549,-2.72242 -2.466699,-4.55918 -1.865952,-3.86763 -2.590713,-4.72573 -5.342408,-6.32528 C 6.9989459,243.88032 4.7757295,241.09647 2.9205698,235.28749 0.9876576,229.23504 -2.6802318e-4,220.01779 5.4541722e-8,208.03883 2.7930045e-4,195.98808 1.097559,185.74572 2.9854142,180.17227 c 0.8068136,-2.38193 2.3485462,-5.36696 3.553469,-6.88005 1.0575621,-1.32805 3.1133734,-2.9334 5.7011778,-4.45195 2.805737,-1.64644 3.369744,-2.33037 5.546312,-6.72567 1.415109,-2.85762 2.235472,-4.24349 3.046761,-5.14701 2.952084,-3.28768 8.171939,-4.90587 15.895092,-4.92758 5.127101,-0.0144 8.058421,0.41889 11.492078,1.69873 3.635702,1.35516 5.735629,3.5533 7.91071,8.28069 1.488278,3.23468 1.86101,3.84553 3.061909,5.01798 1.502721,1.46712 2.989935,2.0467 5.590047,2.17848 3.920743,0.19872 6.883531,-1.32896 8.176981,-4.21622 0.917248,-2.04749 1.421166,-5.55819 1.669163,-11.62876 0.06033,-1.47679 0.111929,-36.58938 0.114663,-78.027988 L 74.748745,0 h 9.558832 9.558831 v 14.284546 14.284545 h 8.377402 8.3774 V 25.559324 22.54956 l 8.43111,0.05619 8.4311,0.05619 0.0598,2.953572 0.0598,2.953571 h 8.37134 8.37134 V 14.284546 0 h 25.34701 25.34702 v 14.284546 14.284545 h 8.3774 8.3774 V 25.559324 22.54956 l 8.43111,0.05619 8.4311,0.05619 0.0598,2.953572 0.0598,2.953571 h 8.37135 8.37134 V 14.284546 0 h 25.34701 25.34702 v 14.284546 14.284545 h 8.3774 8.3774 V 25.559324 22.54956 l 8.43111,0.05619 8.4311,0.05619 0.0598,2.953572 0.0598,2.953571 h 4.72608 4.72605 l -0.073,64.387857 c -0.0667,58.83586 -0.10408,64.61469 -0.43352,67.01856 -0.55614,4.05775 -1.34993,5.98429 -3.05062,7.40383 -2.59419,2.1653 -7.08026,2.51236 -10.42908,0.80684 -1.59394,-0.81178 -2.55959,-2.08237 -4.23978,-5.57865 -0.88001,-1.83121 -1.97344,-3.86112 -2.42983,-4.51091 -2.56082,-3.64589 -6.59718,-5.38607 -14.01666,-6.04294 -4.98058,-0.44094 -10.86524,0.26997 -14.53076,1.75543 -3.71136,1.50404 -5.16894,3.08215 -7.82217,8.46892 -1.08988,2.21278 -2.10387,3.96927 -2.5654,4.44403 -0.41977,0.43177 -1.87856,1.47709 -3.24178,2.32294 -4.10595,2.54766 -5.72868,4.19456 -7.41672,7.52722 -2.88512,5.696 -4.51143,17.00902 -4.50808,31.35921 0.003,11.3102 1.01882,21.02094 2.81805,26.93019 1.77863,5.84154 4.06472,8.85704 8.89633,11.73474 3.483,2.07449 4.08435,2.76466 5.98929,6.87377 2.75792,5.94916 5.17998,8.07202 10.75035,9.42228 5.05007,1.22418 11.54963,1.26641 16.75481,0.10889 5.76971,-1.28306 8.50841,-3.62272 11.17358,-9.54552 1.87274,-4.16181 3.19231,-5.60727 5.88261,-6.44394 4.6221,-1.43741 9.56863,0.46452 10.93071,4.20284 0.67548,1.85389 1.08466,4.55421 1.32887,8.76989 0.13254,2.28772 0.21489,27.12474 0.21683,65.3916 l 0.003,61.70279 h -4.72571 -4.72572 v 3.00728 3.00727 h -8.4848 -8.48481 v -3.00727 -3.00728 h -8.3774 -8.3774 v 14.39195 14.39195 H 270.86598 245.51896 V 401.4709 387.07895 h -8.3774 -8.3774 v 3.00728 3.00727 h -8.48481 -8.48481 v -3.00727 -3.00728 h -8.3774 -8.3774 v 14.39195 14.39195 H 169.69272 144.34571 V 401.4709 387.07895 h -8.3774 -8.3774 v 3.00728 3.00727 h -8.48481 -8.4848 v -3.00727 -3.00728 h -8.37741 -8.3774 v 14.39195 14.39195 h -9.5527 -9.552701 z"
       id="path2" />
  </g>
</svg>
