<?xml version="1.0" encoding="UTF-8" standalone="no"?>
<!-- Created with Inkscape (http://www.inkscape.org/) -->

<svg
   version="1.1"
   id="svg1"
   width="311.72833"
   height="415.74802"
   viewBox="0 0 311.72833 415.74802"
   sodipodi:docname="Footswitch-3.0-8.25x11.svg"
   inkscape:version="1.3.1 (91b66b0783, 2023-11-16)"
   xmlns:inkscape="http://www.inkscape.org/namespaces/inkscape"
   xmlns:sodipodi="http://sodipodi.sourceforge.net/DTD/sodipodi-0.dtd"
   xmlns="http://www.w3.org/2000/svg"
   xmlns:svg="http://www.w3.org/2000/svg">
  <defs
     id="defs1" />
  <sodipodi:namedview
     id="namedview1"
     pagecolor="#ffffff"
     bordercolor="#666666"
     borderopacity="1.0"
     inkscape:showpageshadow="2"
     inkscape:pageopacity="0.0"
     inkscape:pagecheckerboard="0"
     inkscape:deskcolor="#d1d1d1"
     inkscape:zoom="0.896"
     inkscape:cx="747.76786"
     inkscape:cy="1000.558"
     inkscape:window-width="3840"
     inkscape:window-height="2050"
     inkscape:window-x="-12"
     inkscape:window-y="-12"
     inkscape:window-maximized="1"
     inkscape:current-layer="g1" />
  <g
     inkscape:groupmode="layer"
     inkscape:label="Image"
     id="g1">
    <path
       style="fill:#000000;stroke-width:0.214635"
       d="m 74.705859,338.6404 c -0.06263,-56.07263 -0.15411,-77.89809 -0.335331,-80.0052 -0.302002,-3.51145 -0.75016,-6.04307 -1.344899,-7.59722 -1.51625,-3.96221 -7.348749,-5.77594 -11.88369,-3.69548 -2.090565,0.95907 -3.232726,2.35547 -4.832338,5.908 -2.292755,5.09187 -4.290456,7.27954 -7.966383,8.72388 -5.447359,2.14039 -14.726474,2.42246 -20.874496,0.63459 -3.427303,-0.9967 -5.433119,-2.22402 -7.107353,-4.34893 -0.535012,-0.67904 -1.783173,-2.87656 -2.773688,-4.8834 -2.100346,-4.25542 -2.503221,-4.72416 -5.733423,-6.67081 -1.255436,-0.75659 -2.831836,-1.83494 -3.503112,-2.39632 C 2.525622,239.4376 0,228.41847 0,207.87402 0,190.5381 1.949895,179.40696 5.906862,174.15419 c 1.632647,-2.1673 3.212431,-3.49034 6.349321,-5.31746 2.916567,-1.69879 3.465588,-2.40728 5.924878,-7.64583 2.251813,-4.7966 4.996074,-7.00627 10.237545,-8.24323 7.787989,-1.83793 17.677931,-0.92128 22.27252,2.06434 2.238596,1.45466 3.295166,2.83588 5.319688,6.95428 1.031403,2.09813 2.166865,4.08342 2.648235,4.63029 2.014908,2.28906 5.746879,3.27905 9.092721,2.41205 1.741145,-0.45117 2.665795,-0.94679 3.775385,-2.02361 1.642481,-1.59397 2.366666,-4.10259 2.849894,-9.87219 0.172485,-2.05942 0.267596,-25.20153 0.32881,-80.0052 L 74.791987,0 h 9.433575 9.43358 v 14.380546 14.380547 h 8.478088 8.47808 v -3.004891 -3.00489 h 8.37076 8.37077 v 3.00489 3.004891 h 8.47808 8.47809 V 14.380546 0 h 25.21961 25.21962 v 14.380546 14.380547 h 8.47808 8.47808 v -3.004891 -3.00489 h 8.37077 8.37076 v 3.00489 3.004891 h 8.47809 8.47808 V 14.380546 0 h 21.89421 21.89419 l -0.0551,15.292745 -0.0551,15.292745 -2.95123,0.05972 -2.95124,0.05972 v 7.613486 7.613486 h 14.27323 14.27323 V 69.005159 92.07842 h -14.2732 -14.27323 v 7.72686 7.72686 h 3.00489 3.00489 v 7.72687 7.72686 h -3.00489 -3.00489 v 7.72686 7.72686 h 14.27323 14.27323 v 23.07326 23.07327 h -14.27323 -14.27323 v 7.72686 7.72686 h 3.00489 3.00489 v 7.72686 7.72686 h -3.00489 -3.00489 v 7.72686 7.72686 h 14.27323 14.27323 v 23.18058 23.18058 h -14.27323 -14.27323 v 7.72687 7.72686 h 3.00489 3.00489 v 7.72686 7.72686 h -3.00489 -3.00489 v 7.72686 7.72686 h 14.27323 14.27323 v 23.07326 23.07327 h -14.27323 -14.27323 v 7.72686 7.72686 h 3.00489 3.00489 v 15.23909 15.23908 H 267.29887 245.4061 v -14.38054 -14.38055 h -8.47808 -8.47809 v 3.00489 3.00489 h -8.37076 -8.37077 v -3.00489 -3.00489 h -8.47808 -8.47808 v 14.38055 14.38054 h -25.21962 -25.21961 v -14.38054 -14.38055 h -8.47809 -8.47808 v 3.00489 3.00489 h -8.37077 -8.37076 v -3.00489 -3.00489 h -8.47808 -8.478088 v 14.38055 14.38054 h -9.43358 -9.433575 z"
       id="path1" />
  </g>
</svg>
