<?xml version="1.0" encoding="UTF-8" standalone="no"?>
<!-- Created with Inkscape (http://www.inkscape.org/) -->

<svg
   version="1.1"
   id="svg1"
   width="311.89578"
   height="422.81573"
   viewBox="0 0 311.89578 422.81573"
   sodipodi:docname="Footswitch-3.1-8.25x11.187.svg"
   inkscape:version="1.3.1 (91b66b0783, 2023-11-16)"
   xmlns:inkscape="http://www.inkscape.org/namespaces/inkscape"
   xmlns:sodipodi="http://sodipodi.sourceforge.net/DTD/sodipodi-0.dtd"
   xmlns="http://www.w3.org/2000/svg"
   xmlns:svg="http://www.w3.org/2000/svg">
  <defs
     id="defs1" />
  <sodipodi:namedview
     id="namedview1"
     pagecolor="#ffffff"
     bordercolor="#666666"
     borderopacity="1.0"
     inkscape:showpageshadow="2"
     inkscape:pageopacity="0.0"
     inkscape:pagecheckerboard="0"
     inkscape:deskcolor="#d1d1d1"
     inkscape:zoom="0.896"
     inkscape:cx="808.03571"
     inkscape:cy="1000.558"
     inkscape:window-width="3840"
     inkscape:window-height="2050"
     inkscape:window-x="-12"
     inkscape:window-y="-12"
     inkscape:window-maximized="1"
     inkscape:current-layer="g1" />
  <g
     inkscape:groupmode="layer"
     inkscape:label="Image"
     id="g1">
    <path
       style="fill:#000000;stroke-width:0.214514"
       d="m 74.847954,353.15014 c -0.01,-83.97328 -0.12874,-92.95866 -1.28913,-97.26801 -1.11644,-4.14615 -5.11752,-6.52945 -9.69669,-5.776 -3.78975,0.62355 -5.04392,1.78375 -7.56862,7.00146 -1.70103,3.51549 -1.93168,3.87601 -3.48152,5.44203 -1.26081,1.27397 -2.04656,1.86168 -3.26866,2.44477 -3.18708,1.52064 -7.35431,2.28648 -12.4418,2.28648 -7.40866,0 -13.143871,-1.67402 -15.887038,-4.63719 -1.355918,-1.46465 -1.920478,-2.38627 -3.537151,-5.7742 -1.782585,-3.73561 -2.807281,-4.99362 -5.137655,-6.30754 C 8.191087,248.11012 6.284142,246.21397 4.444275,242.51238 1.625362,236.84108 0,225.46552 0,211.40787 c 0,-14.32644 1.576397,-25.35031 4.447899,-31.10451 1.785495,-3.57796 3.506888,-5.37664 7.309957,-7.63818 3.363301,-2.00003 3.91218,-2.63702 6.083457,-7.0601 2.000014,-4.07419 3.25744,-5.75339 5.280315,-7.05146 3.149177,-2.02082 7.799766,-3.03853 13.885036,-3.03853 7.14189,0 12.3935,1.41289 15.51255,4.17349 1.06196,0.93992 2.23076,2.80279 3.87796,6.18083 1.20977,2.48098 1.97123,3.7668 2.62684,4.43577 3.23559,3.3015 9.88112,3.24042 12.82978,-0.11792 1.51108,-1.72103 2.15936,-4.30715 2.59949,-10.36999 0.16953,-2.33531 0.27021,-26.61453 0.33825,-81.571115 L 74.888434,0 l 9.47602,0.05585 9.47601,0.05585 0.0551,14.750347 0.0551,14.750346 8.310926,-0.05614 8.31094,-0.05615 0.0597,-2.949566 0.0597,-2.949565 h 8.46725 8.46724 v 3.005712 3.005715 l 8.31241,-0.05615 8.31242,-0.05615 0.0551,-14.748711 0.0551,-14.748711 25.25753,0.05451 25.25753,0.05451 0.0551,14.750347 0.0551,14.750346 8.31094,-0.05614 8.31093,-0.05615 0.0597,-2.949566 0.0597,-2.949565 h 8.46725 8.46725 v 3.005712 3.005715 l 8.31241,-0.05615 8.31241,-0.05615 0.0551,-14.747829 0.0551,-14.747829 h 21.87893 21.87894 v 15.874027 15.874027 h -3.0032 -3.00319 v 7.720978 7.720979 l 14.3188,0.05515 14.3188,0.05515 0.0546,23.864668 0.0546,23.864668 h -14.37337 -14.37335 v 7.937015 7.93702 h 3.00319 3.0032 v 7.93701 7.93701 h -3.0032 -3.00319 v 7.93701 7.93701 h 14.37243 14.37243 v 23.9183 23.91829 h -14.37243 -14.37243 v 7.82976 7.82976 h 3.00319 3.0032 v 8.04427 8.04427 h -3.0032 -3.00319 v 7.93701 7.93702 h 14.37243 14.37243 v 23.81104 23.81104 h -14.37243 -14.37243 v 7.93701 7.93701 h 3.00581 3.00579 l -0.0562,7.99064 -0.0562,7.99065 -2.94957,0.0597 -2.94956,0.0597 v 7.82371 7.82371 h 14.37243 14.37243 v 23.9183 23.9183 h -14.37243 -14.37243 v 7.07895 7.07896 h 3.00478 3.00478 l -0.0552,13.67525 -0.0552,13.67526 -21.82679,0.0546 -21.82678,0.0547 V 408.1181 393.42289 h -8.35999 -8.36 l -0.0597,2.94957 -0.0597,2.94956 -8.41967,0.0561 -8.41967,0.0561 v -3.00569 -3.00568 h -8.36456 -8.36455 l -0.0551,14.64057 -0.0551,14.64057 -25.25901,0.0545 -25.25901,0.0545 v -14.69508 -14.69508 h -8.35999 -8.35998 l -0.0597,2.94957 -0.0597,2.94956 -8.41967,0.0561 -8.41967,0.0561 v -3.00569 -3.00568 h -8.36455 -8.364546 l -0.0551,14.64057 -0.0551,14.64057 -9.49223,0.0559 -9.49224,0.0559 z M 209.19953,294.21681 c 8.01958,-1.69939 10.91663,-11.71392 5.05718,-17.48168 -4.11673,-4.05232 -10.56234,-3.9898 -14.69469,0.14257 -3.34798,3.34796 -3.89993,8.88346 -1.27908,12.82772 1.0778,1.62205 2.43634,2.83448 4.10153,3.66047 2.34716,1.16425 4.22809,1.3991 6.81506,0.85092 z m 4.2324,-60.91069 c 6.02325,-1.83562 10.80569,-5.70675 13.67786,-11.07145 5.20387,-9.71992 2.87425,-21.48562 -5.65249,-28.54787 -9.61992,-7.96768 -24.22446,-6.52641 -32.13878,3.17167 -10.32317,12.64985 -4.51814,31.64272 11.13532,36.43249 2.85627,0.87398 3.43319,0.93968 7.40073,0.84287 2.82285,-0.0689 3.33854,-0.1454 5.57736,-0.82771 z"
       id="path1" />
  </g>
</svg>
