<?xml version="1.0" encoding="UTF-8" standalone="no"?>
<!-- Created with Inkscape (http://www.inkscape.org/) -->

<svg
   version="1.1"
   id="svg1"
   width="311.8609"
   height="201.71347"
   viewBox="0 0 311.8609 201.71347"
   sodipodi:docname="Footswitch-3.2-8.25x5.337.svg"
   inkscape:version="1.3.1 (91b66b0783, 2023-11-16)"
   xmlns:inkscape="http://www.inkscape.org/namespaces/inkscape"
   xmlns:sodipodi="http://sodipodi.sourceforge.net/DTD/sodipodi-0.dtd"
   xmlns="http://www.w3.org/2000/svg"
   xmlns:svg="http://www.w3.org/2000/svg">
  <defs
     id="defs1" />
  <sodipodi:namedview
     id="namedview1"
     pagecolor="#ffffff"
     bordercolor="#666666"
     borderopacity="1.0"
     inkscape:showpageshadow="2"
     inkscape:pageopacity="0.0"
     inkscape:pagecheckerboard="0"
     inkscape:deskcolor="#d1d1d1"
     inkscape:zoom="1.3353204"
     inkscape:cx="987.02902"
     inkscape:cy="627.19029"
     inkscape:window-width="3840"
     inkscape:window-height="2050"
     inkscape:window-x="-12"
     inkscape:window-y="-12"
     inkscape:window-maximized="1"
     inkscape:current-layer="g1" />
  <g
     inkscape:groupmode="layer"
     inkscape:label="Image"
     id="g1"
     transform="translate(-12.682246,-44)">
    <path
       style="fill:#000000;stroke-width:0.157959"
       d="m 106.402,231.33914 v -14.37426 h -8.368402 -8.368405 l -0.0429,3.04071 -0.0429,3.04071 -1.066221,0.0467 -1.066222,0.0467 -0.0021,-15.13178 c -0.0026,-18.84054 -0.146507,-22.69601 -0.970891,-26.01635 -0.763361,-3.07457 -2.021803,-4.71007 -4.476587,-5.81787 -1.426914,-0.64394 -2.206924,-0.79768 -4.027949,-0.7939 -2.712813,0.006 -4.648955,0.73603 -6.283249,2.37033 -0.926365,0.92637 -1.15638,1.30568 -2.578268,4.25182 -1.697561,3.51733 -2.301607,4.52278 -3.514389,5.84975 -2.856494,3.12546 -8.374805,4.78751 -15.895443,4.78751 -4.49653,0 -8.078793,-0.54412 -11.20636,-1.70218 -1.883967,-0.69758 -3.285812,-1.60547 -4.602487,-2.98076 -1.581981,-1.6524 -1.964262,-2.27714 -3.905577,-6.3827 -1.773223,-3.75007 -2.23851,-4.22444 -6.198072,-6.31906 -2.771308,-1.46604 -3.633105,-2.03954 -4.950305,-3.29427 -2.862328,-2.72659 -4.425158,-6.3093 -5.380457,-12.33442 -0.614395,-3.87503 -0.779165,-6.23384 -0.77237,-11.05712 0.01416,-10.0473 1.538761,-17.25236 4.501607,-21.27393 1.450269,-1.9685 3.105774,-3.23553 6.726766,-5.14832 4.052235,-2.14059 4.293122,-2.41421 6.808918,-7.73406 1.692604,-3.57914 2.825322,-5.01878 5.222585,-6.63769 2.702872,-1.82529 7.981519,-2.96058 13.765545,-2.96058 7.278797,0 12.954865,1.66321 15.707171,4.60255 1.355807,1.44794 1.91177,2.3507 3.603746,5.85171 1.440671,2.98101 1.752246,3.50726 2.573348,4.34641 1.027466,1.05004 2.563891,1.91878 4.007909,2.26618 1.23099,0.29615 3.806377,0.2582 5.045207,-0.0743 2.400574,-0.64441 4.202221,-2.11709 5.081293,-4.15351 1.373899,-3.18269 1.715293,-10.27533 1.718546,-35.703529 l 0.0019,-14.571699 h 1.105711 1.105712 v 3.001217 3.001218 H 98.030187 106.402 V 58.690168 44 h 25.27341 25.27341 v 14.690168 14.690169 h 8.45079 8.4508 v -3.001218 -3.001217 h 8.4508 8.45079 v 3.001217 3.001218 h 8.37182 8.37181 V 58.690168 44 h 25.27341 25.27341 v 14.690168 14.690169 h 8.4508 8.45079 v -3.001218 -3.001217 h 8.4508 8.45079 v 3.001217 3.001218 h 1.973 1.973 l 0.041,7.77947 0.041,7.779471 14.33476,0.04033 14.33476,0.04033 v 21.006852 21.00685 l -14.33476,0.0403 -14.33476,0.0403 v 6.79223 6.79222 l 3.04071,0.0429 3.04071,0.0429 v 6.7854 6.78541 l -3.04071,0.0429 -3.04071,0.0429 v 6.79223 6.79223 l 14.33476,0.0403 14.33476,0.0403 v 20.13807 20.13807 l -14.33476,0.0403 -14.33476,0.0403 -0.0438,2.25091 -0.0438,2.25091 h -1.96674 -1.96673 l -0.0429,3.04071 -0.0429,3.04071 -8.4113,0.0409 -8.41131,0.0409 v -3.08296 -3.08296 l -8.4113,0.0409 -8.41131,0.0409 -0.0403,14.33476 -0.0403,14.33477 H 232.76837 207.49579 V 231.3391 216.96484 h -8.3684 -8.3684 l -0.0429,3.04071 -0.0429,3.04071 -8.4113,0.0409 -8.41131,0.0409 v -3.08296 -3.08296 l -8.41131,0.0409 -8.4113,0.0409 -0.0403,14.33476 -0.0403,14.33477 H 131.67458 106.402 Z m 106.84308,-43.83775 4.12298,-0.39908 4.33161,-1.29408 4.33159,-1.29407 3.98789,-2.13735 3.98788,-2.13735 3.39305,-2.79593 c 3.33764,-2.75029 3.43933,-2.85216 6.22884,-6.23938 l 2.83578,-3.44343 2.09506,-3.92094 2.09504,-3.92093 1.24688,-4.05599 1.24686,-4.05598 0.47318,-4.61881 0.47317,-4.61881 -0.4644,-4.5428 -0.46442,-4.5428 -1.26863,-4.1286 -1.26863,-4.12861 -2.11402,-3.94816 c -2.11085,-3.94221 -2.11826,-3.95329 -4.912,-7.34952 -2.75597,-3.35033 -2.84899,-3.4433 -6.19908,-6.19664 l -3.4011,-2.79528 -3.97341,-2.12084 -3.97341,-2.12084 -4.1859,-1.274902 -4.18591,-1.274898 -4.45199,-0.442323 -4.45199,-0.442324 -4.47268,0.441266 -4.47269,0.441264 -4.24034,1.288908 -4.24032,1.288909 -3.89456,2.08222 c -3.88435,2.07677 -3.90352,2.0896 -7.32823,4.90243 -3.3963,2.78952 -3.4644,2.85759 -6.25562,6.2524 l -2.82194,3.43219 -2.13653,4.01872 -2.13653,4.01873 -1.27211,4.26489 -1.27212,4.26489 -0.41461,4.42284 -0.41461,4.42285 0.47402,4.50182 0.47401,4.50183 1.25797,4.06793 1.25797,4.06793 2.10753,3.94282 c 2.10319,3.93471 2.11327,3.94982 4.90513,7.35076 2.76771,3.37151 2.83427,3.43805 6.22961,6.22586 l 3.43202,2.81792 4.03769,2.14091 4.03772,2.14091 4.02794,1.2276 4.02795,1.22759 4.02795,0.42209 c 2.21538,0.23214 4.3406,0.4309 4.72272,0.44167 0.38212,0.0108 2.5501,-0.15999 4.81774,-0.37948 z"
       id="path1" />
  </g>
</svg>
