<?xml version="1.0" encoding="UTF-8" standalone="no"?>
<!-- Created with Inkscape (http://www.inkscape.org/) -->

<svg
   version="1.1"
   id="svg1"
   width="8.9829998cm"
   height="5.3369999cm"
   viewBox="0 0 339.51495 201.71338"
   sodipodi:docname="Footswitch-2.2-8.98x5.337.svg"
   inkscape:version="1.3.1 (91b66b0783, 2023-11-16)"
   xmlns:inkscape="http://www.inkscape.org/namespaces/inkscape"
   xmlns:sodipodi="http://sodipodi.sourceforge.net/DTD/sodipodi-0.dtd"
   xmlns="http://www.w3.org/2000/svg"
   xmlns:svg="http://www.w3.org/2000/svg">
  <defs
     id="defs1" />
  <sodipodi:namedview
     id="namedview1"
     pagecolor="#ffffff"
     bordercolor="#666666"
     borderopacity="1.0"
     inkscape:showpageshadow="2"
     inkscape:pageopacity="0.0"
     inkscape:pagecheckerboard="0"
     inkscape:deskcolor="#d1d1d1"
     inkscape:zoom="2.9693455"
     inkscape:cx="-95.980748"
     inkscape:cy="99.853655"
     inkscape:window-width="3840"
     inkscape:window-height="2050"
     inkscape:window-x="-12"
     inkscape:window-y="-12"
     inkscape:window-maximized="1"
     inkscape:current-layer="g1"
     inkscape:document-units="cm" />
  <g
     inkscape:groupmode="layer"
     inkscape:label="Image"
     id="g1">
    <path
       style="fill:#000000;stroke-width:0.173144"
       d="m 93.808205,187.3425 v -14.37091 h -8.397452 -8.397454 v 3.03001 3.03001 h -1.125432 -1.125433 l -6.92e-4,-16.05905 c -6.2e-4,-18.28666 -0.141108,-21.92166 -0.974399,-25.21356 -1.053436,-4.1616 -4.066849,-6.41416 -8.547795,-6.38958 -2.932909,0.0161 -5.357974,1.10262 -6.864469,3.07563 -0.33536,0.4392 -1.262264,2.15893 -2.059784,3.82162 -1.613663,3.36418 -2.132137,4.19841 -3.532935,5.68452 -2.965892,3.14653 -8.213077,4.68467 -15.938329,4.67211 -6.048631,-0.01 -10.630989,-1.02679 -13.796183,-3.0618 -2.070421,-1.33114 -3.487114,-3.20713 -5.230236,-6.92595 -2.254099,-4.80894 -2.645618,-5.24657 -6.514611,-7.2818 -1.4240452,-0.7491 -3.0606874,-1.69847 -3.6369832,-2.10971 C 3.9954569,126.62479 1.9648771,122.71089 0.84360439,116.09399 0.25170108,112.60102 0.11288438,110.91237 0.01807226,106.05167 -0.18739451,95.518071 1.3629109,87.623553 4.4756513,83.352645 5.9199314,81.370986 7.4343425,80.187396 10.88067,78.346789 c 4.327912,-2.311438 4.577058,-2.576039 6.811062,-7.233522 1.598898,-3.333407 2.158461,-4.241679 3.47459,-5.63989 3.020247,-3.208609 9.180845,-4.892268 16.976285,-4.639531 8.112516,0.263018 13.036169,2.111743 15.748975,5.913398 0.440544,0.617366 1.538251,2.641099 2.439347,4.497183 1.400119,2.883966 1.783276,3.522798 2.634936,4.393171 1.650562,1.686828 3.634299,2.451414 6.360255,2.451414 3.589307,0 6.330858,-1.521843 7.592007,-4.214344 1.546162,-3.30099 1.837409,-8.680533 1.841587,-34.015322 l 0.0027,-16.50017 1.082147,0.05154 1.082146,0.05155 0.04737,2.986723 0.04737,2.986723 h 8.393365 8.393365 V 14.71853 0.00134138 h 25.278933 25.27893 V 14.71853 29.435718 h 8.39746 8.39746 V 26.405709 23.3757 h 8.48402 8.48403 v 3.030009 3.030009 h 8.39745 8.39745 V 14.71853 0.00134138 h 25.27896 25.27893 V 14.71853 29.435718 h 8.39746 8.39746 V 26.405709 23.3757 h 8.48403 8.48402 v 3.030009 3.030009 h 8.39745 8.39746 V 14.717859 0 l 21.68621,0.04395257 21.68621,0.04395257 0.0485,18.69948686 c 0.0585,22.535266 -0.20068,45.105486 -0.5597,48.739865 -0.45317,4.587422 -1.10501,6.668162 -2.54821,8.134318 -1.56731,1.592222 -3.77468,2.427429 -6.41547,2.427429 -2.60071,0 -4.74534,-0.809074 -6.32086,-2.384589 -0.78286,-0.78287 -1.18762,-1.461941 -2.57003,-4.311722 -1.75427,-3.616399 -2.29242,-4.50615 -3.52974,-5.836024 -3.03942,-3.266793 -9.21351,-4.976105 -17.06181,-4.723607 -8.10924,0.260893 -13.05298,2.112578 -15.72502,5.889823 -0.87648,1.239029 -1.22862,1.893449 -2.88077,5.353749 -1.64168,3.438401 -2.36239,4.170005 -5.98674,6.077271 -2.85081,1.500214 -3.90306,2.190612 -5.1566,3.383369 -4.13277,3.932343 -6.03111,11.150867 -6.05977,23.042666 -0.0244,10.104 1.43381,17.2779 4.34641,21.38321 1.50109,2.11576 2.96188,3.26259 6.63979,5.21272 4.11453,2.18162 4.48428,2.57564 6.64556,7.08151 1.64825,3.4363 2.40198,4.61475 3.83391,5.99433 1.81307,1.7468 3.78606,2.72483 7.08548,3.51233 2.60583,0.62196 5.0259,0.86499 8.55633,0.85925 6.06665,-0.01 10.63618,-1.02685 13.79484,-3.07019 2.08507,-1.34881 3.53375,-3.25754 5.16834,-6.80955 1.43134,-3.11035 1.9877,-4.05823 2.94339,-5.01472 1.59522,-1.59656 3.65268,-2.36516 6.3158,-2.35936 4.44859,0.01 7.32329,2.17746 8.41868,6.3485 0.93609,3.56443 1.08897,9.1923 1.09764,40.40463 l 0.007,23.59079 h -21.7295 -21.72949 v -14.3709 -14.37091 h -8.39746 -8.39745 v 3.03001 3.03001 h -8.48402 -8.48403 v -3.03001 -3.03001 h -8.39746 -8.39746 v 14.37091 14.3709 H 220.20284 194.9239 v -14.3709 -14.37091 h -8.39745 -8.39745 v 3.03001 3.03001 h -8.48403 -8.48402 v -3.03001 -3.03001 h -8.39746 -8.39746 v 14.37091 14.3709 H 119.08714 93.808205 Z"
       id="path1" />
  </g>
</svg>
