<?xml version="1.0" encoding="UTF-8" standalone="no"?>
<!-- Created with Inkscape (http://www.inkscape.org/) -->

<svg
   version="1.1"
   id="svg1"
   width="163.17641"
   height="370.39374"
   viewBox="0 0 163.17641 370.39374"
   sodipodi:docname="Footswitch-1.4-9.8x4.32.svg"
   inkscape:version="1.3.1 (91b66b0783, 2023-11-16)"
   xmlns:inkscape="http://www.inkscape.org/namespaces/inkscape"
   xmlns:sodipodi="http://sodipodi.sourceforge.net/DTD/sodipodi-0.dtd"
   xmlns="http://www.w3.org/2000/svg"
   xmlns:svg="http://www.w3.org/2000/svg">
  <defs
     id="defs1" />
  <sodipodi:namedview
     id="namedview1"
     pagecolor="#ffffff"
     bordercolor="#666666"
     borderopacity="1.0"
     inkscape:showpageshadow="2"
     inkscape:pageopacity="0.0"
     inkscape:pagecheckerboard="0"
     inkscape:deskcolor="#d1d1d1"
     inkscape:zoom="3.584"
     inkscape:cx="99.051339"
     inkscape:cy="245.39621"
     inkscape:window-width="3840"
     inkscape:window-height="2050"
     inkscape:window-x="-12"
     inkscape:window-y="-12"
     inkscape:window-maximized="1"
     inkscape:current-layer="g1" />
  <g
     inkscape:groupmode="layer"
     inkscape:label="Image"
     id="g1">
    <path
       style="fill:#000000;stroke-width:0.188208"
       d="m 90.46325,363.00601 c -2.14402,-8.71741 -2.60729,-10.76023 -3.13143,-13.8082 -0.91117,-5.29872 -0.98436,-6.30339 -1.07812,-14.79991 -0.0529,-4.79002 -0.16292,-8.23408 -0.26314,-8.23408 -0.0947,0 -2.75728,0.64647 -5.91673,1.4366 -3.15945,0.79014 -5.7799,1.40117 -5.82321,1.35785 -0.0433,-0.0433 -3.03624,-11.91132 -6.65094,-26.37335 l -6.57219,-26.2946 0.68167,-0.18094 c 0.37492,-0.0995 2.95325,-0.73379 5.72962,-1.40949 2.77637,-0.6757 5.11992,-1.27304 5.20789,-1.32741 0.088,-0.0543 -0.6258,-1.72833 -1.58614,-3.71992 C 65.55023,258.22514 62.81997,250.63771 58.71835,235.35364 57.629,231.29436 42.144357,169.41668 37.288657,149.71917 30.5609,122.42751 29.363474,115.47243 29.050225,101.86738 c -0.06971,-3.02779 -0.176659,-5.50276 -0.237657,-5.49994 -0.061,0.003 -2.757057,0.67017 -5.991241,1.483 L 16.94099,99.3283 16.759705,98.64518 C 15.995578,95.76582 3.766834,46.612613 3.806877,46.581538 c 0.02826,-0.02193 2.578704,-0.666134 5.667657,-1.431567 3.088952,-0.765435 5.699657,-1.442988 5.801568,-1.505674 0.104276,-0.06414 -1.098194,-2.679911 -2.750229,-5.982649 C 6.95781,26.530012 5.700106,22.993919 1.893103,7.76711 0.851896,3.6026132 0,0.1513558 0,0.0976489 0,0.043942 35.020734,0 77.82385,0 h 77.82386 l -0.003,7.104838 c -0.007,13.880568 -0.55685,19.549736 -2.69439,27.760625 l -0.82068,3.152478 h 5.52338 5.52338 v 27.196002 27.196002 h -6.88612 -6.88612 l 0.13339,0.799882 c 0.0734,0.439935 0.79383,3.467723 1.60105,6.728423 1.6599,6.70509 2.04884,8.51772 2.70968,12.62843 0.91284,5.67825 1.34146,11.58091 1.61132,22.18998 0.23348,9.17882 0.23348,92.07687 0,101.2557 -0.40723,16.00979 -1.12183,21.94379 -4.06199,33.73086 -0.66414,2.66253 -1.20753,4.88574 -1.20753,4.94045 0,0.0547 2.92192,0.0995 6.49316,0.0995 h 6.49316 v 27.19601 27.196 h -5.89717 c -3.24345,0 -5.94585,0.0487 -6.00534,0.10816 -0.0595,0.0595 0.0577,0.67352 0.26036,1.36451 0.94396,3.21805 2.61557,10.14576 2.95981,12.26649 0.86467,5.32676 1.20429,11.76252 1.11733,21.17335 l -0.0574,6.21086 -31.63668,0.0476 -31.63669,0.0476 z m 35.16534,-3.24431 c 3.82601,-0.62786 6.14166,-1.63114 7.99751,-3.46498 1.52388,-1.50581 2.30221,-2.99788 2.86168,-5.48597 0.39163,-1.74163 0.39939,-2.09785 0.36269,-16.64811 -0.0481,-19.0758 -0.18743,-21.41761 -1.47798,-24.84341 -2.03468,-5.40108 -6.67075,-8.17312 -15.76654,-9.42724 -2.73078,-0.37651 -9.2741,-0.42542 -12.04529,-0.09 -7.50121,0.90786 -11.63749,3.03285 -13.21326,6.78827 -0.48541,1.15686 -0.51363,1.38704 -0.51921,4.23468 -0.004,2.23948 0.083,3.42137 0.34089,4.61108 0.68097,3.14132 5.98709,26.29024 6.44948,28.13704 1.21478,4.85181 2.21359,7.25938 4.13825,9.97501 2.30462,3.25175 5.69303,5.11872 11.08498,6.10767 2.42607,0.44496 7.39342,0.49877 9.7868,0.106 z m -7.81062,-83.00683 c 3.67455,-0.38513 5.71957,-0.74268 8.18704,-1.4315 5.4174,-1.51231 8.56572,-4.4143 9.57014,-8.82137 0.66936,-2.93696 0.70633,-4.91738 0.51058,-27.35536 -0.19674,-22.55139 -0.27019,-26.01321 -0.59961,-28.25999 -1.35175,-9.21967 -7.55187,-13.05192 -23.78489,-14.70124 -4.55403,-0.46271 -14.67066,-0.55758 -19.29129,-0.18092 -13.70734,1.11738 -19.78006,3.60156 -21.57494,8.82569 -0.58821,1.71205 -0.65785,4.74616 -0.17357,7.56213 0.33245,1.93313 9.40564,41.82013 10.55738,46.41173 2.09122,8.33702 4.86109,12.35994 10.2501,14.88717 3.00323,1.4084 7.59656,2.51916 12.23349,2.95832 1.19042,0.11274 2.46082,0.23353 2.82312,0.26843 1.9891,0.19153 8.8548,0.0924 11.29245,-0.16309 z m -9.78679,-103.8045 c 4.28088,-0.25202 9.16497,-0.84726 12.47307,-1.52013 8.2318,-1.67435 12.42963,-4.54929 13.96528,-9.56432 0.86995,-2.84101 0.89887,-3.71549 0.76187,-23.03532 -0.14869,-20.96628 -0.36066,-30.35247 -0.72532,-32.11688 -0.66672,-3.22597 -2.139,-5.76321 -4.45461,-7.67684 -5.61194,-4.637714 -19.54059,-7.035216 -41.02926,-7.062254 -9.05518,-0.01139 -13.77004,0.201269 -20.23232,0.912581 -10.33567,1.137663 -16.20974,2.911843 -19.26429,5.818513 -2.821644,2.68504 -3.401395,5.87035 -2.194006,12.05447 0.567247,2.90537 9.558536,42.15024 10.197826,44.5111 1.82766,6.74951 4.28096,10.1682 9.28429,12.93776 7.03555,3.89448 23.47671,5.78574 41.21747,4.74132 z M 100.12646,69.076944 c 5.00622,-0.313253 12.14504,-1.077133 15.72071,-1.682174 9.6818,-1.638266 15.39063,-4.599849 17.42204,-9.038084 1.1438,-2.498962 1.14389,-2.50034 1.11808,-15.838319 -0.0351,-18.117431 -0.16397,-19.769899 -1.76399,-22.611296 -3.53833,-6.28354 -14.94167,-9.45638 -38.51949,-10.717575 -6.07946,-0.325195 -24.26775,-0.325927 -30.20732,-0.0012 -27.960721,1.528591 -37.67074,5.652335 -36.233573,15.388023 0.231053,1.565205 5.978398,26.899368 6.507851,28.686454 0.859337,2.900558 2.583976,5.723052 4.562081,7.466169 3.526849,3.107874 9.340891,5.314955 17.541231,6.658866 4.47922,0.734078 11.17525,1.407765 16.65638,1.675799 2.38082,0.116425 4.87928,0.240379 5.55212,0.275452 2.4978,0.130202 18.46432,-0.06315 21.64388,-0.2621 z"
       id="path1" />
  </g>
</svg>
