<?xml version="1.0" encoding="UTF-8" standalone="no"?>
<!-- Created with Inkscape (http://www.inkscape.org/) -->

<svg
   version="1.1"
   id="svg1"
   width="236.97316"
   height="415.74802"
   viewBox="0 0 236.97316 415.74802"
   sodipodi:docname="Footswitch-1.0-3mm-6.27x11.svg"
   inkscape:version="1.3.1 (91b66b0783, 2023-11-16)"
   xmlns:inkscape="http://www.inkscape.org/namespaces/inkscape"
   xmlns:sodipodi="http://sodipodi.sourceforge.net/DTD/sodipodi-0.dtd"
   xmlns="http://www.w3.org/2000/svg"
   xmlns:svg="http://www.w3.org/2000/svg">
  <defs
     id="defs1" />
  <sodipodi:namedview
     id="namedview1"
     pagecolor="#ffffff"
     bordercolor="#666666"
     borderopacity="1.0"
     inkscape:showpageshadow="2"
     inkscape:pageopacity="0.0"
     inkscape:pagecheckerboard="0"
     inkscape:deskcolor="#d1d1d1"
     inkscape:zoom="0.896"
     inkscape:cx="747.76786"
     inkscape:cy="989.95536"
     inkscape:window-width="3840"
     inkscape:window-height="2050"
     inkscape:window-x="-12"
     inkscape:window-y="-12"
     inkscape:window-maximized="1"
     inkscape:current-layer="g1" />
  <g
     inkscape:groupmode="layer"
     inkscape:label="Image"
     id="g1">
    <path
       style="fill:#000000;stroke-width:0.214635"
       d="m 196.55886,363.04378 c -3.907,-0.94721 -7.22869,-4.18983 -8.34338,-8.14478 -0.45105,-1.60038 -0.45127,-58.71085 0,-60.31244 0.781,-2.77319 2.98731,-5.58177 5.41982,-6.89927 3.40904,-1.84642 7.51578,-1.90475 10.96716,-0.15582 1.31157,0.66461 3.7647,3.08102 4.5194,4.45174 0.3166,0.57501 0.76845,1.6698 1.00415,2.43287 0.41922,1.35731 0.42862,2.01658 0.43257,30.39858 l 0.004,29.01117 -0.49858,1.52144 c -0.66401,2.0263 -1.44144,3.30506 -2.85531,4.69651 -2.79429,2.74999 -6.9047,3.90788 -10.64965,3 z m 0.69078,-236.5574 c -4.11131,-0.68822 -7.8527,-4.1379 -9.03416,-8.3298 -0.43395,-1.5397 -0.4532,-58.723392 -0.0202,-60.205125 0.83278,-2.850241 3.05674,-5.715857 5.43614,-7.004594 6.48679,-3.513389 14.31798,-0.319646 16.4944,6.726792 0.41923,1.357313 0.42863,2.016578 0.43258,30.398577 l 0.004,29.01117 -0.49858,1.52145 c -0.67163,2.04958 -1.45954,3.33464 -2.93562,4.788 -2.50428,2.46569 -6.37954,3.67925 -9.87856,3.09353 z"
       id="path1" />
  </g>
</svg>
