<?xml version="1.0" encoding="UTF-8" standalone="no"?>
<!-- Created with Inkscape (http://www.inkscape.org/) -->

<svg
   version="1.1"
   id="svg1"
   width="8.9799995cm"
   height="11.197cm"
   viewBox="0 0 339.40157 423.19367"
   sodipodi:docname="Footswitch-2.1-3mm-8.98x11.197.svg"
   inkscape:version="1.3.1 (91b66b0783, 2023-11-16)"
   xmlns:inkscape="http://www.inkscape.org/namespaces/inkscape"
   xmlns:sodipodi="http://sodipodi.sourceforge.net/DTD/sodipodi-0.dtd"
   xmlns="http://www.w3.org/2000/svg"
   xmlns:svg="http://www.w3.org/2000/svg">
  <defs
     id="defs1" />
  <sodipodi:namedview
     id="namedview1"
     pagecolor="#ffffff"
     bordercolor="#666666"
     borderopacity="1.0"
     inkscape:showpageshadow="2"
     inkscape:pageopacity="0.0"
     inkscape:pagecheckerboard="0"
     inkscape:deskcolor="#d1d1d1"
     showgrid="false"
     inkscape:zoom="3.584"
     inkscape:cx="143.6942"
     inkscape:cy="224.88839"
     inkscape:window-width="3840"
     inkscape:window-height="2050"
     inkscape:window-x="-12"
     inkscape:window-y="-12"
     inkscape:window-maximized="1"
     inkscape:current-layer="g1"
     inkscape:document-units="cm" />
  <g
     inkscape:groupmode="layer"
     inkscape:label="Image"
     id="g1">
    <path
       style="fill:#000000;stroke-width:0.243205"
       d="m 299.77287,364.78125 c -1.9453,-0.3132 -4.52622,-1.67174 -6.03502,-3.1767 -1.54102,-1.53713 -2.87512,-4.09626 -3.21007,-6.15769 -0.32759,-2.01617 -0.3174,-56.14785 0.0109,-58.24769 0.49694,-3.17777 3.01944,-6.72353 5.77751,-8.12116 6.69024,-3.39019 14.29831,-0.09 16.441,7.13168 0.3508,1.18239 0.39193,4.34805 0.39193,30.17413 0,31.48994 0.0708,29.80729 -1.37453,32.66153 -0.78059,1.54148 -3.08858,3.77452 -4.77331,4.61832 -1.36495,0.68363 -4.16062,1.40184 -5.28281,1.35714 -0.33441,-0.0134 -1.20995,-0.12112 -1.94565,-0.23956 z m 0.72422,-236.87305 c -3.78963,-0.41559 -7.24949,-2.83016 -8.98196,-6.26829 -1.22374,-2.42851 -1.21861,-2.29395 -1.22162,-32.13813 -0.002,-16.73549 0.0907,-28.41832 0.23165,-29.27878 0.87957,-5.37106 5.65671,-9.39087 11.16006,-9.39087 5.23266,0 9.64993,3.29737 11.01574,8.22296 0.42391,1.52869 0.44811,3.1792 0.44636,30.44143 -0.002,27.57289 -0.0219,28.89079 -0.46177,30.33733 -1.62333,5.33789 -6.66799,8.67975 -12.18846,8.07435 z"
       id="path1" />
  </g>
</svg>
