<?xml version="1.0" encoding="UTF-8" standalone="no"?>
<!-- Created with Inkscape (http://www.inkscape.org/) -->

<svg
   version="1.1"
   id="svg1"
   width="237.16534"
   height="103.60514"
   viewBox="0 0 237.16534 103.60514"
   sodipodi:docname="Footswitch-1.3-6.275x2.74.svg"
   inkscape:version="1.3.1 (91b66b0783, 2023-11-16)"
   xmlns:inkscape="http://www.inkscape.org/namespaces/inkscape"
   xmlns:sodipodi="http://sodipodi.sourceforge.net/DTD/sodipodi-0.dtd"
   xmlns="http://www.w3.org/2000/svg"
   xmlns:svg="http://www.w3.org/2000/svg">
  <defs
     id="defs1" />
  <sodipodi:namedview
     id="namedview1"
     pagecolor="#ffffff"
     bordercolor="#666666"
     borderopacity="1.0"
     inkscape:showpageshadow="2"
     inkscape:pageopacity="0.0"
     inkscape:pagecheckerboard="0"
     inkscape:deskcolor="#d1d1d1"
     inkscape:zoom="1.024"
     inkscape:cx="1000"
     inkscape:cy="874.51172"
     inkscape:window-width="3840"
     inkscape:window-height="2050"
     inkscape:window-x="-12"
     inkscape:window-y="-12"
     inkscape:window-maximized="1"
     inkscape:current-layer="g1" />
  <g
     inkscape:groupmode="layer"
     inkscape:label="Image"
     id="g1">
    <path
       style="fill:#000000;stroke-width:0.120192"
       d="M 22.716209,92.54752 V 81.48989 h 3.004789 3.00479 V 75.96108 70.43227 H 14.362894 0 V 52.34343 34.2546 h 14.362894 14.362894 v -5.7091 -5.7091 h -3.00479 -3.004789 V 11.4182 0 h 9.735518 9.735517 v 14.00232 14.00232 h 8.413411 8.413411 v -3.00479 -3.00479 h 8.41341 8.413411 v 3.00479 3.00479 h 8.41341 8.413413 V 14.00232 0 h 25.30033 25.30032 v 14.00232 14.00232 h 8.41341 8.41341 v -3.00479 -3.00479 h 8.41341 8.41342 v 3.00561 3.00559 l 8.44345,-0.0308 8.44346,-0.0309 0.0306,-13.97227 L 193.87002,0 h 21.64766 21.64767 l -0.0632,14.45304 c -0.0371,8.49151 -0.11837,15.32061 -0.19694,16.55639 -0.3429,5.39298 -0.89794,7.32445 -2.37627,8.26912 -2.70815,1.73052 -8.97374,1.98624 -12.63889,0.51584 -1.43671,-0.57638 -2.45971,-1.58564 -3.70027,-3.65057 -1.70323,-2.83507 -3.11889,-3.72136 -6.51135,-4.07654 -2.20437,-0.23078 -4.73304,0.14763 -6.30659,0.94379 -0.31705,0.16041 -0.89297,0.61314 -1.27982,1.00603 -0.58724,0.59643 -0.87467,1.06002 -1.74091,2.80775 -1.40945,2.84376 -1.74622,3.14111 -4.73088,4.1772 -2.04351,0.70938 -3.04421,1.21992 -3.84575,1.96199 -1.2934,1.19747 -1.87369,2.79947 -1.87369,5.17269 0,2.98302 1.00984,4.9726 3.08546,6.07889 0.38405,0.2047 1.48458,0.63949 2.44562,0.96621 3.21187,1.09192 3.59163,1.39375 4.8646,3.86642 0.74493,1.44692 1.00907,1.83744 1.72486,2.54993 1.42986,1.42328 3.11555,1.92598 6.43415,1.91875 2.22295,-0.005 3.48379,-0.23624 4.85391,-0.89093 1.08857,-0.52014 1.62868,-1.05003 2.73312,-2.68142 0.54784,-0.80925 1.237,-1.72963 1.53143,-2.04527 1.59011,-1.70464 4.46794,-2.46311 8.85018,-2.33253 2.34123,0.0698 3.46839,0.24618 5.00071,0.78269 1.8558,0.64978 2.84971,1.8592 3.28141,3.99295 0.38127,1.88452 0.42804,4.48246 0.4299,23.88183 l 0.002,19.38089 H 215.504 193.86999 l -0.0305,-14.33284 -0.0305,-14.33285 h -8.41341 -8.41341 l -0.0321,3.03484 -0.0321,3.03483 h -8.41135 -8.41135 v -3.06488 -3.06489 h -8.41341 -8.41341 v 14.3629 14.36289 H 117.96813 92.6678 V 89.24225 74.87935 h -8.413413 -8.41341 v 3.06489 3.06488 H 67.42954 59.018193 l -0.03211,-3.03483 -0.03211,-3.03484 -8.383363,-0.0309 -8.383363,-0.0309 v 14.36371 14.36371 H 32.45173 22.716212 Z"
       id="path1" />
  </g>
</svg>
