<?xml version="1.0" encoding="UTF-8" standalone="no"?>
<!-- Created with Inkscape (http://www.inkscape.org/) -->

<svg
   version="1.1"
   id="svg1"
   width="282.48184"
   height="103.80204"
   viewBox="0 0 282.48184 103.80204"
   sodipodi:docname="Footswitch-3.3-7.47x2.75.svg"
   inkscape:version="1.3.1 (91b66b0783, 2023-11-16)"
   xmlns:inkscape="http://www.inkscape.org/namespaces/inkscape"
   xmlns:sodipodi="http://sodipodi.sourceforge.net/DTD/sodipodi-0.dtd"
   xmlns="http://www.w3.org/2000/svg"
   xmlns:svg="http://www.w3.org/2000/svg">
  <defs
     id="defs1" />
  <sodipodi:namedview
     id="namedview1"
     pagecolor="#ffffff"
     bordercolor="#666666"
     borderopacity="1.0"
     inkscape:showpageshadow="2"
     inkscape:pageopacity="0.0"
     inkscape:pagecheckerboard="0"
     inkscape:deskcolor="#d1d1d1"
     inkscape:zoom="1.3353204"
     inkscape:cx="800.55692"
     inkscape:cy="7.1143973"
     inkscape:window-width="3840"
     inkscape:window-height="2050"
     inkscape:window-x="-12"
     inkscape:window-y="-12"
     inkscape:window-maximized="1"
     inkscape:current-layer="g1" />
  <g
     inkscape:groupmode="layer"
     inkscape:label="Image"
     id="g1"
     transform="translate(-199.05443,-663.99379)">
    <path
       style="fill:#000000;stroke-width:0.157992"
       d="m 263.34836,753.41855 v -14.37731 h -8.37359 -8.3736 v 3.08085 3.08085 h -1.10595 -1.10595 l -0.002,-7.70213 c -0.004,-12.27804 -0.2785,-14.48822 -1.98639,-15.98777 -0.77178,-0.67761 -1.74085,-1.08501 -3.40383,-1.43091 -2.9268,-0.60879 -6.41216,-0.54425 -8.97602,0.16624 -2.10567,0.58352 -3.06079,1.37169 -4.86354,4.0135 -0.71122,1.04225 -1.31228,1.73283 -1.7932,2.0603 -0.70922,0.48292 -2.31266,1.0576 -3.51904,1.26125 -1.16608,0.19685 -4.12986,0.10437 -5.32852,-0.16627 -2.43231,-0.54915 -3.58362,-1.49799 -4.87998,-4.02173 -1.32456,-2.57865 -1.73924,-2.93235 -4.58715,-3.91271 -2.38909,-0.8224 -3.16104,-1.19761 -4.02062,-1.95424 -1.99567,-1.75666 -2.5899,-5.86654 -1.2674,-8.76571 0.76717,-1.68177 1.85037,-2.48532 4.66755,-3.46253 2.11128,-0.73235 3.2763,-1.35468 3.82623,-2.04388 0.24105,-0.3021 0.86453,-1.40709 1.38552,-2.45553 1.07226,-2.15782 1.84451,-3.09593 3.03702,-3.68927 2.51094,-1.24932 7.25751,-1.28626 9.63574,-0.075 1.2125,0.61755 1.70529,1.12001 2.91145,2.96864 1.7814,2.73027 2.60552,3.49117 4.45662,4.11476 2.22753,0.7504 5.21028,0.9602 8.00392,0.56297 2.55873,-0.36382 4.09734,-1.00939 4.89349,-2.05318 0.95093,-1.24674 1.44666,-4.29674 1.57666,-9.70052 0.0473,-1.96713 0.12616,-4.30534 0.17519,-5.19602 l 0.0891,-1.61943 h 1.09074 1.09075 v 3.00186 3.00185 h 8.37274 8.37274 l 0.0404,-14.02182 0.0404,-14.02183 25.23929,-0.04 25.23928,-0.04 v 14.06181 14.0618 h 8.4526 8.45259 v -3.00185 -3.00186 h 8.45259 8.4526 v 3.00186 3.00185 h 8.37274 8.37275 l 0.0403,-14.02182 0.0404,-14.02183 25.23928,-0.04 25.23929,-0.04 v 14.06181 14.0618 h 8.45259 8.4526 v -3.00185 -3.00186 h 8.45259 8.4526 v 2.99714 2.99713 l 2.0144,0.0442 2.0144,0.0442 0.0428,3.12035 0.0428,3.12035 h 14.29496 14.29498 v 18.01114 18.01113 h -14.29831 -14.29831 v 2.29089 2.29089 h -2.05049 -2.05049 l -0.0429,3.04135 -0.0429,3.04136 -8.4131,0.0409 -8.41309,0.0409 v -3.08362 -3.08362 l -8.4131,0.0409 -8.41309,0.0409 -0.0403,14.33781 -0.0403,14.33781 H 389.74145 364.4635 v -14.37731 -14.37731 h -8.3736 -8.37359 v 3.08085 3.08085 h -8.4526 -8.45259 v -3.08224 -3.08223 l -8.4131,0.0409 -8.41309,0.0409 -0.0403,14.33781 -0.0403,14.33781 h -25.27795 -25.27795 z"
       id="path1" />
  </g>
</svg>
