<?xml version="1.0" encoding="UTF-8" standalone="no"?>
<!-- Created with Inkscape (http://www.inkscape.org/) -->

<svg
   version="1.1"
   id="svg1"
   width="339.40158"
   height="422.85236"
   viewBox="0 0 339.40158 422.85236"
   sodipodi:docname="Footswitch-2.1-8.98x11.197.svg"
   inkscape:version="1.3.1 (91b66b0783, 2023-11-16)"
   xmlns:inkscape="http://www.inkscape.org/namespaces/inkscape"
   xmlns:sodipodi="http://sodipodi.sourceforge.net/DTD/sodipodi-0.dtd"
   xmlns="http://www.w3.org/2000/svg"
   xmlns:svg="http://www.w3.org/2000/svg">
  <defs
     id="defs1" />
  <sodipodi:namedview
     id="namedview1"
     pagecolor="#ffffff"
     bordercolor="#666666"
     borderopacity="1.0"
     inkscape:showpageshadow="2"
     inkscape:pageopacity="0.0"
     inkscape:pagecheckerboard="0"
     inkscape:deskcolor="#d1d1d1"
     inkscape:zoom="3.584"
     inkscape:cx="287.10938"
     inkscape:cy="199.91629"
     inkscape:window-width="3840"
     inkscape:window-height="2050"
     inkscape:window-x="-12"
     inkscape:window-y="-12"
     inkscape:window-maximized="1"
     inkscape:current-layer="g1" />
  <g
     inkscape:groupmode="layer"
     inkscape:label="Image"
     id="g1">
    <path
       style="fill:#000000;stroke-width:0.214755"
       d="m 74.740545,343.76888 c -0.06179,-57.71538 -0.152221,-79.86685 -0.334689,-81.98268 -0.302987,-3.51333 -0.770951,-5.94991 -1.428092,-7.43584 -1.792095,-4.05223 -7.392705,-5.57939 -12.165815,-3.3173 -1.751613,0.83014 -2.626132,1.95468 -4.48557,5.76796 -2.235747,4.58505 -3.242814,5.9379 -5.59951,7.52223 -3.214751,2.16119 -10.399537,3.38821 -16.785063,2.86661 -6.511192,-0.53188 -9.818788,-1.71657 -12.638562,-4.52681 -1.528344,-1.5232 -1.765427,-1.89124 -3.500727,-5.43463 -2.210454,-4.51364 -2.723054,-5.11275 -6.036702,-7.05551 C 8.4024961,248.20104 6.129011,245.90723 4.6516559,242.99515 1.4350188,236.65469 -0.00331925,226.89323 5.7509798e-6,211.42618 0.00310575,196.81006 1.3751478,186.74949 4.2051209,180.59103 c 1.524585,-3.31771 3.7101571,-5.65667 7.2481081,-7.75677 1.003978,-0.59595 2.217709,-1.36465 2.697179,-1.70822 1.056517,-0.75706 2.332582,-2.66595 3.422995,-5.12051 2.255766,-5.07785 4.381219,-7.3813 8.082425,-8.75931 6.363297,-2.36917 16.798148,-2.3367 22.717261,0.0707 3.76725,1.53218 5.594739,3.53059 7.928769,8.67029 2.077687,4.57523 3.749011,6.06805 7.516984,6.71419 3.829829,0.65674 7.820211,-1.17233 9.158252,-4.19788 0.992547,-2.24433 1.500017,-6.30126 1.601888,-12.80622 0.02867,-1.83079 0.07259,-3.66694 0.0976,-4.08035 0.02501,-0.4134 0.06434,-34.69632 0.0874,-76.184288 L 74.805918,0 h 9.449216 9.449211 v 14.710709 14.71071 h 8.482815 8.48282 v -3.006568 -3.006569 h 8.37544 8.37544 v 3.006569 3.006568 h 8.48282 8.48282 V 14.710709 0 h 25.2337 25.2337 v 14.710709 14.71071 h 8.48282 8.4828 v -3.006568 -3.006569 h 8.37544 8.37545 v 3.006569 3.006568 h 8.48281 8.48283 V 14.710709 0 h 25.2337 25.2337 v 14.710709 14.71071 h 8.48281 8.48282 v -3.006568 -3.006569 h 8.37544 8.37544 v 3.006569 3.006568 h 4.84081 4.8408 l -0.0837,65.124414 c -0.0598,46.440167 -0.15327,65.740547 -0.32611,67.271977 -0.57698,5.11255 -1.16532,6.96951 -2.70316,8.53181 -1.28065,1.30099 -2.7104,1.99766 -4.74318,2.31115 -2.93207,0.4522 -6.23182,-0.51098 -7.96543,-2.32505 -0.85263,-0.89219 -1.08824,-1.30543 -3.15132,-5.52717 -1.67972,-3.4372 -2.78346,-4.84857 -4.91174,-6.28073 -5.51546,-3.71143 -19.33427,-4.12752 -26.28667,-0.7915 -3.24572,1.55742 -4.51116,3.04821 -7.04415,8.29841 -1.86551,3.86673 -2.59009,4.72464 -5.34114,6.32381 -2.55112,1.48294 -3.77655,2.42616 -5.2708,4.05686 -4.68494,5.11278 -6.94681,16.43015 -6.9543,34.79602 -0.007,17.4186 1.89291,28.27055 5.94081,33.93127 1.55339,2.17232 2.72176,3.14443 6.6979,5.57282 1.1309,0.69071 2.30422,1.60561 2.738,2.13498 0.41748,0.50948 1.39062,2.25548 2.16256,3.88002 2.57296,5.41487 4.33015,7.33364 8.04596,8.7859 7.37429,2.8821 19.6962,2.30133 25.1708,-1.18638 0.55598,-0.35419 1.6041,-1.27815 2.32917,-2.05325 1.09293,-1.16832 1.62914,-2.04606 3.13651,-5.13403 1.39909,-2.86616 2.05016,-3.95675 2.82444,-4.73101 2.59306,-2.59305 7.35035,-3.17317 10.82676,-1.32027 2.83968,1.51353 3.78204,3.59607 4.49931,9.94309 0.17328,1.53337 0.26646,20.7727 0.32582,67.27197 l 0.0831,65.12441 h -4.8405 -4.84051 v 3.00657 3.00657 h -8.37544 -8.37544 v -3.00657 -3.00657 h -8.48282 -8.48281 v 14.71072 14.7107 h -25.2337 -25.2337 v -14.7107 -14.71072 h -8.48283 -8.48281 v 3.00657 3.00657 h -8.37545 -8.37544 v -3.00657 -3.00657 h -8.4828 -8.48282 v 14.71072 14.7107 h -25.2337 -25.2337 v -14.7107 -14.71072 h -8.48282 -8.48282 v 3.00657 3.00657 h -8.37544 -8.37544 v -3.00657 -3.00657 h -8.48282 -8.482815 v 14.71072 14.7107 H 84.26482 74.82525 Z M 210.11243,294.21091 c 4.45279,-1.32609 7.37515,-5.28156 7.37547,-9.98282 0,-4.03276 -2.13871,-7.56872 -5.6485,-9.33757 -3.90745,-1.96923 -8.70416,-1.298 -11.86722,1.6607 -2.16356,2.02375 -3.28039,4.63738 -3.28039,7.67687 0,3.0301 0.92949,5.23706 3.13418,7.44175 2.68948,2.68947 6.56963,3.64802 10.28646,2.54107 z m -0.82469,-59.9302 c 14.54895,-1.52493 24.04581,-15.85152 19.7256,-29.75732 -3.72447,-11.98823 -16.64436,-18.77491 -28.68319,-15.06696 -15.60267,4.80562 -21.35143,24.09498 -10.90883,36.60339 3.79606,4.547 9.58025,7.65059 15.31129,8.21551 1.00398,0.099 1.94244,0.19276 2.08545,0.20846 0.143,0.0157 1.25437,-0.0757 2.46968,-0.20308 z"
       id="path1" />
  </g>
</svg>
