<?xml version="1.0" encoding="UTF-8" standalone="no"?>
<!-- Created with Inkscape (http://www.inkscape.org/) -->

<svg
   version="1.1"
   id="svg1"
   width="207.33806"
   height="415.74811"
   viewBox="0 0 207.33806 415.74811"
   sodipodi:docname="Footswitch-1.5-5.486x11.svg"
   inkscape:version="1.3.1 (91b66b0783, 2023-11-16)"
   xmlns:inkscape="http://www.inkscape.org/namespaces/inkscape"
   xmlns:sodipodi="http://sodipodi.sourceforge.net/DTD/sodipodi-0.dtd"
   xmlns="http://www.w3.org/2000/svg"
   xmlns:svg="http://www.w3.org/2000/svg">
  <defs
     id="defs1" />
  <sodipodi:namedview
     id="namedview1"
     pagecolor="#ffffff"
     bordercolor="#666666"
     borderopacity="1.0"
     inkscape:showpageshadow="2"
     inkscape:pageopacity="0.0"
     inkscape:pagecheckerboard="0"
     inkscape:deskcolor="#d1d1d1"
     inkscape:zoom="0.896"
     inkscape:cx="747.76786"
     inkscape:cy="1000.558"
     inkscape:window-width="3840"
     inkscape:window-height="2050"
     inkscape:window-x="-12"
     inkscape:window-y="-12"
     inkscape:window-maximized="1"
     inkscape:current-layer="g1" />
  <g
     inkscape:groupmode="layer"
     inkscape:label="Image"
     id="g1">
    <path
       style="fill:#000000;stroke-width:0.214634"
       d="m 97.88147,392.8956 c -3.1236,-12.56519 -5.63253,-22.89255 -5.57539,-22.9497 0.0571,-0.0571 6.26466,-1.64465 13.79448,-3.52783 7.52982,-1.88317 13.73678,-3.47013 13.79323,-3.52658 0.0815,-0.0815 -3.32868,-14.15226 -3.66165,-15.10851 -0.0605,-0.17362 -0.94315,-0.0321 -2.93868,0.47112 -1.56875,0.39559 -2.88919,0.68236 -2.93431,0.63722 -0.24425,-0.24425 -3.84322,-15.25094 -3.68151,-15.3509 0.10597,-0.0655 1.33143,-0.39314 2.72324,-0.7281 1.39181,-0.33498 2.60664,-0.67818 2.69961,-0.76268 0.25944,-0.23581 -3.5459,-15.24772 -3.86512,-15.24772 -0.14679,0 -6.26176,1.49707 -13.58882,3.32682 -7.32705,1.82975 -13.48646,3.32682 -13.68758,3.32682 -0.30642,0 -1.29686,-3.72546 -6.11328,-22.99458 -3.16119,-12.64703 -5.69871,-23.0435 -5.63893,-23.1033 0.0598,-0.0598 6.25894,-1.63894 13.77591,-3.50926 7.51696,-1.87031 13.72237,-3.45573 13.78979,-3.52314 0.12995,-0.12996 -3.60445,-15.33785 -3.76631,-15.33785 -0.0522,0 -1.24261,0.28975 -2.64538,0.6439 -1.40278,0.35414 -2.68925,0.6439 -2.85884,0.6439 -0.37539,0 -4.18333,-14.94778 -3.87798,-15.22268 0.10477,-0.0943 1.05976,-0.38291 2.12219,-0.6413 1.06244,-0.2584 2.28195,-0.56202 2.71002,-0.67475 l 0.77831,-0.20493 -1.93331,-7.73123 c -1.62885,-6.5137 -1.98802,-7.71473 -2.28074,-7.62662 -2.03103,0.61142 -27.32976,6.80049 -27.42179,6.70846 -0.21533,-0.21532 -11.62196,-46.08275 -11.48041,-46.16408 0.0744,-0.0428 6.31678,-1.60079 13.87189,-3.46229 7.5551,-1.8615 13.76412,-3.40605 13.79781,-3.43235 0.10751,-0.0839 -3.65548,-15.0132 -3.83424,-15.21201 -0.0982,-0.10922 -1.33875,0.10147 -2.90079,0.49265 -1.50106,0.37591 -2.79735,0.60666 -2.88066,0.51277 -0.16582,-0.18688 -3.9135,-15.11425 -3.81412,-15.19201 0.0337,-0.0264 1.34884,-0.36491 2.92254,-0.75231 2.65944,-0.65469 2.85288,-0.73638 2.7423,-1.15804 -0.0654,-0.24951 -0.91385,-3.71341 -1.88536,-7.69755 -0.97151,-3.98413 -1.8445,-7.24388 -1.93998,-7.24388 -0.0955,0 -6.36654,1.54881 -13.9357,3.4418 -7.56916,1.893 -13.78313,3.41421 -13.80883,3.38048 -0.0778,-0.10211 -11.48728,-45.8692 -11.48728,-46.07924 0,-0.10731 6.1573,-1.71258 13.6829,-3.56726 7.52559,-1.85469 13.76861,-3.45142 13.87338,-3.5483 0.13646,-0.1262 -3.35173,-14.987604 -3.6091,-15.376518 -0.0152,-0.02302 -1.32612,0.28557 -2.91308,0.685761 -1.58696,0.400191 -2.90621,0.706795 -2.93166,0.681346 -0.0254,-0.02545 -0.90807,-3.489346 -1.96138,-7.697546 l -1.91511,-7.651269 2.81383,-0.691925 c 1.54761,-0.380559 2.87503,-0.725222 2.94984,-0.765918 0.15084,-0.08207 -3.5484,-15.046365 -3.77573,-15.273692 -0.0786,-0.07856 -6.36622,1.412245 -13.97258,3.312909 l -13.82973,3.455755 -0.2231,-0.828527 C 10.75161,43.555553 0,0.250712 0,0.12426 0,0.0564 11.3729,0.02543 25.27311,0.05542 l 25.27311,0.05454 0.0552,14.326797 0.0552,14.326796 h 6.97407 6.97407 v -3.004871 -3.004871 h 6.97559 6.9756 v 3.004871 3.004871 h 6.97407 6.97407 L 92.55929,14.436757 92.61449,0.10996 113.16566,0.05522 133.71683,4.8e-4 v 14.381533 14.381533 h 6.65365 6.65364 v -3.004871 -3.004871 h 6.76096 6.76096 v 3.004871 3.004871 h 6.76096 6.76096 V 14.381779 0 l 16.58045,0.05498 16.58045,0.05498 v 22.858484 22.858484 l -14.3268,0.05518 -14.32679,0.05518 v 7.725289 7.72529 h 3.00487 3.00487 v 7.726811 7.726812 h -3.00487 -3.00487 v 7.61797 7.61797 l 14.32679,0.0552 14.3268,0.0552 0.0546,23.12678 0.0546,23.12677 H 192.95662 178.5752 v 7.72682 7.72681 h 3.00487 3.00487 v 7.72681 7.72681 h -3.00487 -3.00487 v 7.72681 7.72681 h 14.38045 14.38046 v 23.07309 23.07312 H 192.95565 178.5752 v 7.72681 7.72681 h 3.00487 3.00487 v 7.72681 7.72681 h -3.00487 -3.00487 v 7.72681 7.72682 h 14.38142 14.38142 l -0.0546,23.12677 -0.0546,23.12678 -14.3268,0.0552 -14.32679,0.0552 v 7.72529 7.72529 h 3.00487 3.00487 v 7.72681 7.72681 h -3.00487 -3.00487 v 7.61797 7.61797 l 14.32679,0.0552 14.3268,0.0552 0.0546,22.91214 0.0546,22.91214 h -16.63507 -16.63508 v -14.38045 -14.38046 h -6.00974 -6.00974 v 3.00487 3.00487 h -6.00369 -6.00369 l -0.0597,-2.95121 -0.0597,-2.95121 -6.06341,-0.057 -6.0634,-0.057 v 14.38378 14.3838 l -17.11703,-0.003 -17.11703,-0.003 z"
       id="path1" />
  </g>
</svg>
