<?xml version="1.0" encoding="UTF-8" standalone="no"?>
<!-- Created with Inkscape (http://www.inkscape.org/) -->

<svg
   version="1.1"
   id="svg1"
   width="237.14929"
   height="201.67558"
   viewBox="0 0 237.14929 201.67558"
   sodipodi:docname="Footswitch-1.2-6.275x5.336.svg"
   inkscape:version="1.3.1 (91b66b0783, 2023-11-16)"
   xmlns:inkscape="http://www.inkscape.org/namespaces/inkscape"
   xmlns:sodipodi="http://sodipodi.sourceforge.net/DTD/sodipodi-0.dtd"
   xmlns="http://www.w3.org/2000/svg"
   xmlns:svg="http://www.w3.org/2000/svg">
  <defs
     id="defs1" />
  <sodipodi:namedview
     id="namedview1"
     pagecolor="#ffffff"
     bordercolor="#666666"
     borderopacity="1.0"
     inkscape:showpageshadow="2"
     inkscape:pageopacity="0.0"
     inkscape:pagecheckerboard="0"
     inkscape:deskcolor="#d1d1d1"
     inkscape:zoom="1.024"
     inkscape:cx="1000"
     inkscape:cy="874.51172"
     inkscape:window-width="3840"
     inkscape:window-height="2050"
     inkscape:window-x="-12"
     inkscape:window-y="-12"
     inkscape:window-maximized="1"
     inkscape:current-layer="g1" />
  <g
     inkscape:groupmode="layer"
     inkscape:label="Image"
     id="g1">
    <path
       style="fill:#000000;stroke-width:0.120187"
       d="m 22.716232,191.04106 v -10.63455 l 2.974656,-0.0321 2.974655,-0.0321 0.03117,-5.91877 0.03118,-5.91877 -14.333561,-0.0305 L 0.06077,168.44377 0.03038,148.28222 0,128.12065 h 14.362826 14.362826 v -6.85072 -6.85072 H 25.72095 22.716248 v -6.85073 -6.85071 h 3.004702 3.004702 V 93.86705 87.01634 H 14.363161 6.85e-4 V 65.98326 44.950342 H 14.363161 28.725636 V 37.138118 29.325893 H 25.720934 22.716232 V 14.662946 0 h 9.735236 9.735234 v 14.72304 14.72304 h 8.413167 8.413164 v -3.004702 -3.004702 h 8.413167 8.413166 v 3.004702 3.004702 h 8.413165 8.413173 V 14.72304 0 h 25.299586 25.29959 v 14.72304 14.72304 h 8.41316 8.41317 v -3.004702 -3.004702 h 8.41318 8.41315 v 3.005514 3.005514 l 8.44321,-0.03085 8.44322,-0.03085 0.0305,-14.692994 L 193.86501,0 h 21.64214 21.64214 l -0.0539,30.617914 c -0.0358,20.323726 -0.0989,31.405896 -0.18759,32.961586 -0.47433,8.31522 -1.22116,10.9923 -3.56193,12.76807 -1.52138,1.15416 -2.97111,1.64163 -5.17598,1.74045 -3.79612,0.17013 -6.6612,-1.35408 -8.29479,-4.41273 -0.22948,-0.42966 -0.77642,-1.56544 -1.21544,-2.52394 -1.03897,-2.26836 -1.49219,-3.0975 -2.33226,-4.26669 -1.43588,-1.99837 -3.24857,-3.3796 -5.64627,-4.30233 -7.32197,-2.81775 -19.82753,-2.21641 -25.0778,1.20587 -2.55845,1.66769 -3.44921,2.90797 -6.08006,8.46579 -1.60506,3.39077 -2.16574,3.94038 -6.13649,6.01527 -1.13188,0.59145 -2.4636,1.35101 -2.95937,1.68792 -3.96391,2.69362 -6.03033,6.53018 -7.20064,13.36886 -1.19003,6.95394 -1.18743,15.80159 0.007,22.83573 0.95413,5.62024 2.59568,9.29233 5.27087,11.79063 1.28456,1.19964 2.20827,1.81356 4.69147,3.11815 2.49376,1.31013 2.57701,1.35943 3.50144,2.0728 1.22959,0.94889 1.95734,2.0656 3.34514,5.13305 0.41871,0.92544 0.95087,2.03418 1.18258,2.46384 1.10917,2.05669 2.80146,3.93518 4.52635,5.0244 1.84279,1.16368 4.77641,2.07499 8.29298,2.57614 2.45263,0.34955 7.82414,0.3749 10.27608,0.0485 3.79637,-0.50536 6.84976,-1.46532 8.89393,-2.79618 2.07415,-1.35039 3.38642,-3.00007 4.88301,-6.13856 1.73435,-3.63705 2.01504,-4.16986 2.62049,-4.97409 1.54236,-2.04872 3.96511,-3.13809 6.97915,-3.13809 1.73751,0 3.0025,0.28496 4.37258,0.98498 3.11691,1.59254 4.19487,3.90695 4.84197,10.39599 0.09,0.90241 0.14767,10.46884 0.18173,30.13717 l 0.0498,28.81509 H 215.50427 193.8652 l -0.0305,-14.33243 -0.0305,-14.33243 h -8.41317 -8.41316 l -0.0321,3.03475 -0.0321,3.03473 h -8.4111 -8.4111 v -3.06479 -3.06479 h -8.41317 -8.41316 v 14.36248 14.36248 H 117.96555 92.665964 v -14.36248 -14.36248 h -8.413173 -8.413165 v 3.06479 3.06479 H 67.42648 59.013314 v -3.06479 -3.06479 h -8.413255 -8.413167 v 14.36248 14.36248 h -9.735234 -9.735236 z"
       id="path1" />
  </g>
</svg>
