<?xml version="1.0" encoding="UTF-8" standalone="no"?>
<!-- Created with Inkscape (http://www.inkscape.org/) -->

<svg
   version="1.1"
   id="svg1"
   width="8.198cm"
   height="2.7440002cm"
   viewBox="0 0 309.84957 103.71155"
   sodipodi:docname="Footswitch-2.3-8.2x2.744.svg"
   inkscape:version="1.3.1 (91b66b0783, 2023-11-16)"
   xmlns:inkscape="http://www.inkscape.org/namespaces/inkscape"
   xmlns:sodipodi="http://sodipodi.sourceforge.net/DTD/sodipodi-0.dtd"
   xmlns="http://www.w3.org/2000/svg"
   xmlns:svg="http://www.w3.org/2000/svg">
  <defs
     id="defs1" />
  <sodipodi:namedview
     id="namedview1"
     pagecolor="#ffffff"
     bordercolor="#666666"
     borderopacity="1.0"
     inkscape:showpageshadow="2"
     inkscape:pageopacity="0.0"
     inkscape:pagecheckerboard="0"
     inkscape:deskcolor="#d1d1d1"
     inkscape:zoom="1.1030866"
     inkscape:cx="892.0424"
     inkscape:cy="359.44595"
     inkscape:window-width="3840"
     inkscape:window-height="2050"
     inkscape:window-x="-12"
     inkscape:window-y="-12"
     inkscape:window-maximized="1"
     inkscape:current-layer="g1"
     inkscape:document-units="cm" />
  <g
     inkscape:groupmode="layer"
     inkscape:label="Image"
     id="g1">
    <path
       style="fill:#000000;stroke-width:0.173139"
       d="M 64.294834,89.338052 V 74.965871 l -8.44052,0.04494 -8.44052,0.04493 -0.0474,2.986647 -0.0474,2.986647 h -1.01984 -1.01984 l -0.0774,-9.652497 c -0.0824,-10.271606 -0.15573,-11.217789 -0.99814,-12.869068 -0.9074,-1.778639 -3.33851,-2.707746 -7.5428,-2.882654 -2.52428,-0.105018 -4.56991,0.12139 -6.21486,0.687857 -1.89329,0.65198 -2.83897,1.469834 -4.38655,3.793576 -0.48554,0.729064 -1.21649,1.598516 -1.62434,1.932115 -2.40871,1.970227 -8.89668,2.109092 -11.63404,0.249006 -0.85808,-0.583078 -1.57869,-1.542538 -2.4387,-3.246982 -1.2359896,-2.44962 -1.4729196,-2.616866 -5.9737896,-4.217035 -1.84885,-0.657312 -2.9011,-1.505558 -3.58145997,-2.887112 -1.31168,-2.663523 -0.98877,-6.594664 0.70646997,-8.600689 0.63777,-0.754695 1.91884,-1.448568 4.08697,-2.213644 3.13356,-1.10576 3.63643,-1.544902 4.8936296,-4.273544 0.85372,-1.852917 1.59094,-2.860645 2.52747,-3.454875 1.87274,-1.188262 5.13503,-1.653888 7.81867,-1.11596 2.79979,0.561208 3.8568,1.324337 5.41367,3.908518 1.21352,2.01426 2.33527,3.101776 3.80423,3.688112 4.41296,1.761445 11.93213,0.970856 13.51499,-1.421012 0.98603,-1.489987 1.26838,-3.477158 1.53373,-10.794193 l 0.20562,-5.670301 h 1.00314 1.00316 l 0.0474,2.986647 0.0474,2.986646 8.44052,0.04493 8.44052,0.04494 V 14.025902 0 H 89.573114 114.8514 V 14.024255 28.04851 h 8.39315 8.39314 l 0.0474,-2.986646 0.0474,-2.986648 h 8.39723 8.39724 l 0.0474,2.986648 0.0474,2.986646 h 8.39314 8.39315 V 14.024255 0 h 25.2783 25.27828 V 14.024255 28.04851 h 8.39316 8.39315 l 0.0474,-2.986646 0.0474,-2.986648 8.44053,-0.04493 8.44052,-0.04494 v 3.03158 3.031578 h 8.39724 8.39723 V 14.024255 0 h 21.65643 21.65643 l -0.0813,15.885499 c -0.0516,10.081019 -0.15198,16.486507 -0.27483,17.530319 -0.48494,4.120765 -1.03848,5.342488 -2.81627,6.215778 -1.72383,0.846788 -3.29108,1.118701 -6.37841,1.106633 -2.16832,-0.0085 -2.94885,-0.0814 -4.06465,-0.379744 -2.63453,-0.70443 -3.46959,-1.368481 -5.36287,-4.264632 -0.69661,-1.065575 -1.56638,-2.161744 -1.96718,-2.479182 -2.46662,-1.953589 -8.51823,-2.085 -11.24377,-0.244157 -0.97995,0.661863 -1.34723,1.171562 -2.63982,3.663587 -1.2592,2.427658 -1.82775,3.004539 -3.58704,3.639598 -3.60568,1.301563 -3.91918,1.46034 -4.9844,2.524469 -1.38912,1.3877 -1.73032,2.377795 -1.73032,5.02103 0,2.419866 0.34496,3.567858 1.43715,4.782643 0.89856,0.999401 1.87155,1.533995 4.25318,2.336823 3.00151,1.01178 3.43888,1.387273 4.86591,4.177319 1.00827,1.971285 1.97508,2.908617 3.57006,3.461141 3.17895,1.101237 7.87143,0.759848 10.01979,-0.728963 0.62249,-0.431392 1.10896,-1.024293 2.67635,-3.261933 0.93782,-1.338879 1.79576,-2.028636 3.15654,-2.537766 2.13704,-0.799574 5.75551,-1.086707 8.63957,-0.685572 2.90084,0.403471 4.61187,1.270804 5.43186,2.753447 0.98329,1.777905 0.9454,0.877165 1.00711,23.941088 l 0.0569,21.252815 h -21.6482 -21.64823 V 89.339699 74.969166 h -8.39723 -8.39724 v 3.029932 3.029931 h -8.48381 -8.48381 v -3.029931 -3.029932 h -8.39724 -8.39724 v 14.370533 14.370541 h -25.27839 -25.2783 V 89.339699 74.969166 h -8.39723 -8.39724 v 3.029932 3.029931 h -8.48381 -8.48381 v -3.029931 -3.029932 h -8.39723 -8.39724 V 89.339699 103.71024 H 89.573144 64.294854 Z"
       id="path1" />
  </g>
</svg>
